<svg id="svg" version="1.1" xmlns="http://www.w3.org/2000/svg" xmlns:xlink="http://www.w3.org/1999/xlink" width="200" height="100" viewBox="0, 100, 400,200"><g id="svgg"><path id="path1" d="M340.667 152.667 C 340.520 152.813,340.400 154.773,340.400 157.021 L 340.400 161.108 342.519 161.373 C 343.684 161.518,344.989 161.494,345.419 161.319 C 345.966 161.095,345.421 160.940,343.600 160.800 L 341.000 160.600 340.878 159.138 C 340.784 158.011,340.953 157.538,341.613 157.076 L 342.470 156.476 341.635 156.211 C 340.744 155.928,340.427 153.878,341.200 153.400 C 341.420 153.264,341.600 152.983,341.600 152.776 C 341.600 152.341,341.056 152.277,340.667 152.667 M332.800 154.000 C 332.327 154.306,332.419 154.389,333.232 154.394 C 335.411 154.407,335.830 157.376,333.795 158.389 L 332.600 158.983 333.600 159.125 C 334.150 159.203,335.185 159.827,335.900 160.512 C 337.458 162.004,337.653 161.517,336.132 159.929 C 335.204 158.960,335.124 158.685,335.518 157.821 C 336.053 156.645,335.251 154.259,334.182 153.849 C 333.396 153.547,333.523 153.533,332.800 154.000 M329.900 154.900 C 329.302 155.358,329.328 155.634,330.213 158.200 C 330.745 159.740,331.184 161.304,331.190 161.676 C 331.195 162.048,331.377 162.462,331.592 162.595 C 332.260 163.008,331.852 159.458,331.141 158.668 C 330.043 157.450,329.923 155.899,330.864 155.100 C 331.835 154.276,330.953 154.093,329.900 154.900 M351.624 156.478 C 349.245 159.525,347.949 161.653,349.052 160.700 C 349.498 160.315,350.276 160.000,350.780 160.000 C 351.545 160.000,351.616 159.901,351.207 159.408 C 350.579 158.651,352.623 155.202,353.700 155.201 C 355.073 155.199,354.689 159.908,353.300 160.096 L 352.200 160.246 353.273 160.703 C 354.059 161.037,354.392 161.514,354.516 162.480 C 354.610 163.206,354.667 161.732,354.643 159.205 C 354.591 153.606,354.166 153.223,351.624 156.478 M361.398 158.706 C 358.399 160.897,356.979 165.103,358.800 166.400 C 359.460 166.870,360.000 167.062,360.000 166.827 C 360.000 166.592,359.824 166.400,359.609 166.400 C 358.226 166.400,357.898 164.394,359.002 162.695 C 361.216 159.285,362.597 158.460,364.009 159.700 C 364.323 159.975,364.241 159.795,363.827 159.300 C 363.070 158.392,362.139 158.165,361.398 158.706 M365.315 160.948 C 365.582 161.523,365.935 161.995,366.100 161.997 C 366.646 162.003,366.412 161.335,365.615 160.613 C 364.847 159.918,364.840 159.926,365.315 160.948 M370.000 165.065 C 370.000 165.271,370.198 165.638,370.440 165.880 C 371.209 166.649,370.444 167.746,367.753 169.734 C 366.313 170.798,365.225 171.758,365.335 171.868 C 365.445 171.978,366.714 171.153,368.156 170.034 C 371.053 167.786,371.382 167.685,372.527 168.700 C 373.287 169.374,373.301 169.370,372.896 168.600 C 372.265 167.400,370.000 164.635,370.000 165.065 M360.600 167.600 C 360.736 167.820,361.107 168.000,361.424 168.000 C 361.741 168.000,362.000 167.820,362.000 167.600 C 362.000 167.380,361.629 167.200,361.176 167.200 C 360.723 167.200,360.464 167.380,360.600 167.600 M42.572 178.128 C 42.450 178.447,42.406 179.494,42.475 180.454 L 42.600 182.200 48.400 182.400 C 55.524 182.646,57.200 183.380,57.200 186.255 C 57.200 189.549,56.039 190.094,48.400 190.381 L 42.600 190.600 42.492 199.100 L 42.384 207.600 44.949 207.600 C 48.118 207.600,48.000 207.866,48.000 200.744 L 48.000 195.154 49.700 195.277 C 51.604 195.415,51.713 195.577,55.500 203.900 L 57.184 207.600 59.982 207.600 C 63.227 207.600,63.183 208.160,60.406 202.200 C 56.600 194.030,56.756 194.651,58.300 193.848 C 63.957 190.905,63.849 181.566,58.126 178.748 C 55.692 177.550,42.989 177.043,42.572 178.128 M68.196 178.081 C 68.089 178.366,67.957 184.090,67.901 190.800 L 67.800 203.000 66.200 203.200 L 64.600 203.400 64.479 205.500 L 64.358 207.600 70.579 207.600 L 76.800 207.600 76.800 205.424 L 76.800 203.248 75.300 203.124 L 73.800 203.000 73.600 190.400 L 73.400 177.800 70.895 177.681 C 69.118 177.596,68.333 177.713,68.196 178.081 M88.791 178.338 C 81.498 180.237,78.309 184.511,78.296 192.400 C 78.280 202.745,83.086 207.005,95.321 207.493 L 100.841 207.713 100.721 205.157 L 100.600 202.600 95.200 202.391 C 86.072 202.037,83.229 199.387,83.681 191.651 C 83.981 186.509,86.462 183.831,91.897 182.780 C 95.288 182.124,95.600 182.416,95.600 186.241 C 95.600 189.556,95.844 189.789,99.038 189.528 L 100.600 189.400 100.600 183.600 L 100.600 177.800 96.000 177.729 C 92.764 177.679,90.627 177.860,88.791 178.338 M102.800 191.405 L 102.800 205.249 104.447 203.324 C 106.927 200.428,110.435 196.800,110.758 196.800 C 110.914 196.800,112.993 199.230,115.378 202.200 L 119.713 207.600 123.080 207.600 C 126.893 207.600,126.848 207.765,123.959 204.400 C 122.920 203.190,120.331 200.170,118.205 197.688 L 114.340 193.176 115.070 192.019 C 115.472 191.382,118.010 188.149,120.711 184.834 C 126.954 177.172,126.815 177.600,123.068 177.600 L 120.051 177.600 115.049 183.748 C 107.450 193.088,108.049 193.025,107.910 184.500 L 107.800 177.800 105.300 177.681 L 102.800 177.562 102.800 191.405 M163.600 189.001 L 163.600 200.438 166.100 200.319 L 168.600 200.200 168.711 194.070 C 168.794 189.460,168.942 187.979,169.311 188.094 C 169.580 188.179,172.852 192.602,176.583 197.924 L 183.366 207.600 186.088 207.600 L 188.810 207.600 188.705 192.700 L 188.600 177.800 186.100 177.681 L 183.600 177.562 183.594 186.881 C 183.588 195.431,183.338 197.872,182.549 197.083 C 182.388 196.921,179.261 192.516,175.603 187.294 L 168.950 177.800 166.275 177.682 L 163.600 177.563 163.600 189.001 M190.800 183.619 L 190.800 189.638 193.300 189.519 L 195.800 189.400 195.916 186.122 C 196.053 182.245,196.244 182.093,200.033 182.838 C 205.220 183.859,207.688 186.744,207.938 192.078 C 208.246 198.641,204.834 202.400,198.568 202.400 L 196.034 202.400 195.917 199.300 L 195.800 196.200 193.300 196.081 L 190.800 195.962 190.800 201.832 L 190.800 207.703 196.300 207.497 C 208.534 207.040,214.367 201.537,213.482 191.289 C 212.663 181.802,207.107 177.621,195.300 177.606 L 190.800 177.600 190.800 183.619 M225.084 177.850 C 224.928 178.006,224.800 184.772,224.800 192.885 L 224.800 207.637 227.500 207.518 L 230.200 207.400 230.308 199.100 C 230.368 194.535,230.548 190.800,230.708 190.801 C 230.869 190.801,232.691 194.086,234.758 198.101 C 239.382 207.083,238.815 206.400,241.650 206.400 L 244.003 206.400 247.697 198.999 C 249.729 194.928,251.573 191.657,251.796 191.731 C 252.018 191.804,252.290 193.740,252.400 196.032 L 252.600 200.200 255.000 200.200 L 257.400 200.200 257.400 189.000 L 257.400 177.800 254.886 177.681 L 252.371 177.561 250.215 182.081 C 249.030 184.566,246.730 189.480,245.106 192.999 C 243.481 196.519,241.892 199.448,241.574 199.510 C 241.178 199.586,239.298 196.188,235.598 188.710 L 230.200 177.800 227.784 177.683 C 226.455 177.619,225.240 177.694,225.084 177.850 M270.114 178.180 C 263.773 180.162,260.009 185.533,260.009 192.600 C 260.009 209.570,282.586 213.671,287.973 197.679 C 291.918 185.971,281.518 174.616,270.114 178.180 M290.972 178.128 C 290.850 178.447,290.806 179.494,290.875 180.454 L 291.000 182.200 296.800 182.400 C 304.028 182.649,305.559 183.333,305.587 186.326 C 305.618 189.534,304.402 190.095,296.800 190.381 L 291.000 190.600 291.000 199.000 L 291.000 207.400 293.500 207.519 L 296.000 207.638 296.000 201.868 C 296.000 195.453,296.151 195.050,298.474 195.273 C 299.916 195.411,300.520 196.387,304.071 204.315 L 305.542 207.600 308.414 207.600 C 310.556 207.600,311.233 207.473,311.078 207.100 C 310.963 206.825,309.673 204.024,308.210 200.875 C 305.240 194.482,305.283 194.795,307.190 193.515 C 312.532 189.928,312.114 181.502,306.455 178.714 C 304.087 177.547,291.380 177.066,290.972 178.128 M312.965 178.146 C 312.847 178.456,312.806 179.494,312.875 180.454 L 313.000 182.200 321.800 182.200 L 330.600 182.200 330.600 180.000 L 330.600 177.800 321.890 177.692 C 314.707 177.603,313.143 177.683,312.965 178.146 M332.800 177.993 C 332.800 178.210,334.899 181.314,337.466 184.891 C 344.233 194.327,343.597 192.687,343.599 200.700 L 343.600 207.600 346.200 207.600 L 348.800 207.600 348.800 200.774 C 348.800 193.062,348.560 193.848,352.651 188.168 C 356.281 183.128,356.279 183.200,352.816 183.200 C 349.829 183.200,349.200 183.555,347.690 186.087 C 346.996 187.253,346.010 187.834,345.632 187.299 C 345.504 187.118,343.902 184.862,342.071 182.285 L 338.741 177.600 335.771 177.600 C 334.091 177.600,332.800 177.771,332.800 177.993 M149.325 178.700 C 149.188 179.085,148.364 181.200,147.495 183.400 C 146.626 185.600,145.051 189.650,143.996 192.400 C 142.942 195.150,141.251 199.552,140.239 202.183 C 137.964 208.099,137.897 207.659,141.061 207.518 L 143.722 207.400 145.381 202.600 C 146.293 199.960,147.471 196.540,147.999 195.000 C 149.402 190.905,149.974 190.338,150.723 192.300 C 150.954 192.905,151.681 194.930,152.339 196.800 C 152.996 198.670,154.127 201.865,154.851 203.900 L 156.168 207.600 158.927 207.600 C 160.976 207.600,161.633 207.471,161.482 207.100 C 161.370 206.825,160.288 204.080,159.076 201.000 C 153.131 185.883,150.400 178.772,150.400 178.404 C 150.400 177.730,149.592 177.952,149.325 178.700 M371.116 180.500 C 371.390 180.831,372.321 180.949,373.865 180.849 C 376.641 180.670,375.759 180.073,372.651 180.028 C 371.136 180.006,370.794 180.111,371.116 180.500 M377.200 181.492 C 377.200 183.164,373.181 184.536,372.488 183.100 C 372.091 182.275,372.052 182.325,372.027 183.686 C 372.007 184.765,371.772 185.294,371.166 185.618 C 370.707 185.864,370.413 186.146,370.512 186.246 C 370.612 186.345,372.382 185.450,374.447 184.257 C 377.972 182.219,378.872 181.291,377.700 180.900 C 377.417 180.806,377.200 181.063,377.200 181.492 M278.276 183.374 C 288.907 188.324,282.769 205.508,271.489 202.376 C 261.609 199.632,264.120 182.408,274.400 182.408 C 275.464 182.408,277.049 182.803,278.276 183.374 M319.467 189.067 C 319.320 189.213,319.200 193.443,319.200 198.467 L 319.200 207.600 321.800 207.600 L 324.400 207.600 324.400 198.200 L 324.400 188.800 322.067 188.800 C 320.783 188.800,319.613 188.920,319.467 189.067 M371.600 189.487 C 373.017 189.756,373.594 190.339,373.640 191.549 L 373.680 192.600 373.956 191.600 C 374.200 190.719,374.481 190.586,376.316 190.479 L 378.400 190.358 378.428 191.879 C 378.451 193.094,378.525 193.239,378.800 192.600 C 379.545 190.867,379.278 190.048,377.900 189.839 C 376.140 189.572,370.341 189.248,371.600 189.487 M272.414 191.174 C 271.380 193.106,272.449 195.200,274.470 195.200 C 276.459 195.200,277.585 192.442,276.171 191.029 C 275.263 190.120,272.930 190.210,272.414 191.174 M373.600 193.889 C 373.600 195.037,377.114 195.846,378.047 194.913 C 378.380 194.580,378.067 194.521,376.839 194.685 C 375.584 194.854,374.990 194.734,374.391 194.192 C 373.956 193.798,373.600 193.662,373.600 193.889 M369.589 197.787 C 369.869 198.124,370.327 198.400,370.606 198.400 C 371.251 198.400,371.641 199.390,371.355 200.300 C 371.166 200.902,371.223 200.892,371.764 200.229 C 372.596 199.208,375.160 199.756,375.826 201.098 C 376.278 202.008,376.800 201.915,376.800 200.923 C 376.800 200.625,376.349 200.209,375.799 200.000 C 375.248 199.790,373.989 199.250,373.000 198.800 C 369.684 197.289,369.010 197.089,369.589 197.787 M370.673 201.885 C 370.235 203.105,370.932 204.228,372.456 204.760 C 374.242 205.382,374.428 204.938,372.687 204.211 C 371.513 203.720,371.228 203.373,371.121 202.305 C 371.004 201.135,370.957 201.092,370.673 201.885 M375.094 203.703 L 374.388 205.000 375.194 204.056 C 375.880 203.252,376.246 202.394,375.900 202.403 C 375.845 202.404,375.482 202.989,375.094 203.703 " stroke="none" fill="#090909" fill-rule="evenodd"></path><path id="path2" d="M340.179 152.509 C 340.064 152.809,340.022 154.932,340.085 157.227 L 340.200 161.400 341.400 161.437 C 342.532 161.472,342.538 161.465,341.500 161.312 L 340.400 161.149 340.400 156.998 C 340.400 154.490,340.569 152.743,340.827 152.584 C 341.466 152.189,341.817 152.743,341.273 153.287 C 340.469 154.091,340.694 155.913,341.635 156.211 L 342.470 156.476 341.613 157.076 C 340.641 157.757,340.581 160.400,341.531 160.713 C 341.959 160.854,341.967 160.737,341.572 160.104 C 340.597 158.543,341.389 157.258,343.408 157.122 C 345.788 156.961,345.725 156.253,343.310 156.000 C 339.845 155.637,340.560 153.356,344.210 153.126 C 347.223 152.935,346.591 152.216,343.294 152.082 C 341.127 151.995,340.335 152.103,340.179 152.509 M331.600 154.000 C 331.270 154.213,331.180 154.393,331.400 154.400 C 331.620 154.407,331.530 154.587,331.200 154.800 C 330.667 155.145,330.667 155.188,331.200 155.188 C 331.868 155.188,333.233 154.419,332.600 154.400 C 332.380 154.393,332.470 154.213,332.800 154.000 C 333.333 153.655,333.333 153.612,332.800 153.612 C 332.470 153.612,331.930 153.787,331.600 154.000 M352.467 154.842 C 352.097 155.433,352.084 155.595,352.422 155.386 C 352.730 155.196,352.834 155.289,352.710 155.644 C 352.604 155.950,352.263 156.157,351.952 156.104 C 351.642 156.051,351.140 156.411,350.837 156.904 C 350.301 157.776,350.308 157.781,351.076 157.099 C 351.510 156.714,351.960 156.493,352.075 156.609 C 352.191 156.725,352.514 156.545,352.792 156.210 C 353.727 155.083,354.076 155.568,353.937 157.801 C 353.862 159.011,353.935 160.001,354.100 160.001 C 354.265 160.000,354.400 158.920,354.400 157.600 C 354.400 155.394,354.329 155.200,353.520 155.200 C 352.865 155.200,352.756 155.084,353.093 154.747 C 354.370 153.470,354.802 154.661,354.740 159.287 C 354.707 161.769,354.603 163.260,354.509 162.600 C 354.415 161.940,354.160 161.220,353.941 161.000 C 353.677 160.735,353.632 161.004,353.805 161.800 C 354.223 163.715,354.350 164.000,354.787 164.000 C 355.537 164.000,355.323 154.533,354.567 154.243 C 353.493 153.831,353.013 153.968,352.467 154.842 M329.217 154.979 C 328.853 155.418,328.848 155.733,329.196 156.279 C 329.609 156.928,329.636 156.910,329.465 156.099 C 329.344 155.528,329.517 155.056,329.937 154.811 C 330.302 154.598,330.397 154.419,330.149 154.412 C 329.901 154.405,329.482 154.661,329.217 154.979 M335.206 155.124 C 335.203 155.412,335.013 155.532,334.784 155.390 C 334.514 155.223,334.459 155.498,334.629 156.172 C 334.788 156.808,334.679 157.479,334.345 157.905 C 333.852 158.534,333.867 158.548,334.500 158.051 C 334.885 157.749,335.203 157.029,335.206 156.451 C 335.211 155.626,335.295 155.529,335.600 156.000 C 335.813 156.330,335.988 156.420,335.988 156.200 C 335.988 155.980,335.813 155.530,335.600 155.200 C 335.318 154.764,335.211 154.743,335.206 155.124 M329.638 157.600 C 329.624 157.930,329.787 158.470,330.000 158.800 C 330.329 159.309,330.389 159.290,330.394 158.676 C 330.397 158.278,330.578 158.063,330.795 158.197 C 331.027 158.340,331.086 158.170,330.940 157.787 C 330.759 157.317,330.606 157.267,330.393 157.612 C 330.171 157.971,330.043 157.955,329.880 157.545 C 329.710 157.118,329.658 157.130,329.638 157.600 M335.385 158.047 C 335.193 158.651,335.382 159.138,336.043 159.747 L 336.970 160.600 336.249 159.729 C 335.790 159.173,335.623 158.557,335.791 158.029 C 335.936 157.573,335.964 157.200,335.854 157.200 C 335.744 157.200,335.533 157.581,335.385 158.047 M331.800 158.800 C 331.360 158.989,331.228 159.156,331.508 159.172 C 331.844 159.191,331.942 159.571,331.798 160.300 C 331.600 161.304,331.616 161.322,331.978 160.500 C 332.196 160.005,332.530 159.600,332.720 159.600 C 332.911 159.600,333.067 159.330,333.067 159.000 C 333.067 158.329,332.942 158.309,331.800 158.800 M350.800 158.748 C 350.800 158.971,350.983 159.266,351.207 159.404 C 351.430 159.542,351.509 159.823,351.383 160.028 C 351.256 160.232,351.239 160.400,351.344 160.400 C 351.449 160.400,351.789 160.498,352.101 160.617 C 352.438 160.747,352.667 160.585,352.667 160.217 C 352.667 159.878,352.530 159.600,352.362 159.600 C 352.194 159.600,351.774 159.317,351.429 158.971 C 351.083 158.626,350.800 158.525,350.800 158.748 M363.333 159.033 C 363.333 159.782,364.476 160.784,365.573 160.995 C 366.518 161.177,366.558 160.386,365.619 160.073 C 365.271 159.957,365.198 160.073,365.406 160.410 C 365.616 160.749,365.565 160.825,365.255 160.634 C 364.998 160.475,364.878 160.197,364.990 160.016 C 365.102 159.835,364.775 159.413,364.263 159.078 C 363.485 158.568,363.333 158.561,363.333 159.033 M335.204 160.197 C 336.834 162.155,337.624 162.523,337.568 161.300 C 337.547 160.827,337.468 160.774,337.323 161.135 C 337.171 161.517,336.695 161.288,335.659 160.335 C 334.289 159.074,334.263 159.067,335.204 160.197 M348.400 160.199 C 347.661 161.581,348.233 161.959,349.311 160.801 C 349.800 160.276,349.885 160.083,349.500 160.372 C 348.712 160.964,348.540 160.420,349.280 159.680 C 349.566 159.394,349.593 159.200,349.348 159.200 C 349.121 159.200,348.694 159.650,348.400 160.199 M360.115 159.700 C 359.905 159.975,359.231 160.920,358.617 161.800 L 357.501 163.400 358.740 162.000 C 359.421 161.230,359.983 160.789,359.989 161.020 C 359.995 161.251,359.784 161.656,359.520 161.920 C 359.256 162.184,359.151 162.400,359.286 162.400 C 359.422 162.400,360.123 161.635,360.844 160.700 C 361.992 159.213,362.021 159.121,361.078 159.970 C 360.036 160.907,359.508 160.652,360.480 159.680 C 360.744 159.416,360.856 159.200,360.729 159.200 C 360.602 159.200,360.326 159.425,360.115 159.700 M330.412 160.000 C 330.412 160.330,330.587 160.870,330.800 161.200 C 331.145 161.733,331.188 161.733,331.188 161.200 C 331.188 160.870,331.013 160.330,330.800 160.000 C 330.455 159.467,330.412 159.467,330.412 160.000 M332.000 162.424 C 332.000 162.657,331.797 162.722,331.548 162.568 C 331.279 162.401,331.168 162.503,331.273 162.819 C 331.571 163.712,332.400 163.723,332.400 162.833 C 332.400 162.375,332.310 162.000,332.200 162.000 C 332.090 162.000,332.000 162.191,332.000 162.424 M369.600 164.754 C 369.600 164.949,369.869 165.624,370.198 166.254 C 370.642 167.106,370.796 167.208,370.798 166.651 C 370.800 165.997,370.887 165.972,371.484 166.451 C 371.938 166.815,371.862 166.562,371.257 165.700 C 370.383 164.454,369.600 164.007,369.600 164.754 M360.000 167.133 C 360.000 167.610,360.164 168.000,360.365 168.000 C 360.771 168.000,360.711 166.977,360.278 166.545 C 360.125 166.392,360.000 166.657,360.000 167.133 M372.300 167.591 C 372.575 167.904,372.800 168.315,372.800 168.504 C 372.800 168.693,372.575 168.712,372.300 168.547 C 371.960 168.343,371.976 168.463,372.349 168.923 C 372.651 169.295,373.056 169.600,373.249 169.600 C 373.919 169.600,373.595 168.520,372.700 167.773 C 372.205 167.359,372.025 167.277,372.300 167.591 M367.317 169.525 C 365.824 170.652,364.827 171.706,364.817 172.167 C 364.808 172.588,364.905 172.828,365.033 172.700 C 365.162 172.572,365.207 172.381,365.133 172.275 C 364.937 171.993,366.458 170.400,366.924 170.400 C 367.144 170.400,366.981 170.794,366.562 171.276 L 365.800 172.151 367.088 171.257 C 367.796 170.765,368.506 170.146,368.665 169.881 C 368.835 169.598,368.671 169.629,368.267 169.957 C 367.890 170.263,367.490 170.423,367.379 170.313 C 367.164 170.097,369.753 168.000,370.235 168.000 C 370.394 168.000,370.181 168.388,369.762 168.862 L 369.000 169.724 370.124 169.000 C 370.963 168.460,371.115 168.192,370.724 167.944 C 369.993 167.481,370.073 167.443,367.317 169.525 M42.661 177.500 C 42.558 177.665,44.212 177.752,46.337 177.694 C 53.182 177.506,53.937 177.346,48.324 177.272 C 45.312 177.232,42.763 177.335,42.661 177.500 M68.262 177.500 C 68.160 177.665,69.302 177.800,70.800 177.800 C 72.298 177.800,73.440 177.665,73.338 177.500 C 73.236 177.335,72.094 177.200,70.800 177.200 C 69.506 177.200,68.364 177.335,68.262 177.500 M97.400 177.573 L 100.600 177.800 100.600 183.662 C 100.600 186.887,100.735 189.441,100.900 189.339 C 101.065 189.236,101.200 186.573,101.200 183.419 C 101.200 176.798,101.444 177.161,97.067 177.273 L 94.200 177.347 97.400 177.573 M102.667 177.467 C 102.297 177.837,102.329 205.600,102.700 205.600 C 102.865 205.600,102.950 199.285,102.890 191.566 L 102.780 177.531 105.353 177.665 C 106.768 177.739,107.842 177.665,107.739 177.500 C 107.509 177.129,103.034 177.099,102.667 177.467 M123.100 177.497 C 126.319 177.650,126.453 177.800,124.964 179.569 C 124.395 180.246,124.080 180.799,124.264 180.797 C 124.824 180.793,126.492 178.073,126.213 177.621 C 126.062 177.377,124.747 177.233,123.076 177.279 L 120.200 177.359 123.100 177.497 M165.107 177.490 C 165.826 177.579,166.906 177.577,167.507 177.486 C 168.108 177.395,167.520 177.322,166.200 177.324 C 164.880 177.326,164.388 177.401,165.107 177.490 M184.400 177.427 C 185.744 177.727,188.711 177.780,188.538 177.500 C 188.436 177.335,187.328 177.221,186.076 177.246 C 184.824 177.272,184.070 177.353,184.400 177.427 M190.576 177.718 C 190.467 178.004,190.433 180.839,190.500 184.018 L 190.624 189.800 190.712 183.716 L 190.800 177.632 194.100 177.498 L 197.400 177.363 194.087 177.281 C 191.683 177.222,190.720 177.342,190.576 177.718 M225.061 177.500 C 224.958 177.665,226.007 177.741,227.392 177.668 C 229.645 177.550,229.977 177.632,230.555 178.457 C 230.910 178.963,231.200 179.186,231.200 178.951 C 231.200 177.594,225.796 176.317,225.061 177.500 M255.000 177.567 L 257.400 177.800 257.400 189.000 L 257.400 200.200 255.000 200.200 L 252.600 200.200 252.400 196.032 C 252.259 193.104,252.048 191.834,251.690 191.762 C 251.410 191.706,251.365 191.751,251.590 191.863 C 251.830 191.983,252.000 193.773,252.000 196.191 C 252.000 200.841,251.972 200.800,255.153 200.800 C 258.081 200.800,258.000 201.136,258.000 189.000 C 258.000 176.699,258.127 177.167,254.820 177.267 L 252.600 177.334 255.000 177.567 M294.100 177.497 C 295.585 177.574,298.015 177.574,299.500 177.497 C 300.985 177.420,299.770 177.357,296.800 177.357 C 293.830 177.357,292.615 177.420,294.100 177.497 M313.062 177.500 C 312.959 177.665,316.864 177.800,321.738 177.800 L 330.600 177.800 330.600 180.063 C 330.600 181.307,330.735 182.242,330.900 182.139 C 331.520 181.754,331.232 177.698,330.567 177.443 C 329.649 177.091,313.282 177.144,313.062 177.500 M332.667 177.467 C 332.520 177.613,332.403 177.928,332.406 178.167 C 332.410 178.439,332.526 178.421,332.717 178.120 C 332.890 177.848,334.227 177.579,335.811 177.499 L 338.600 177.357 335.767 177.278 C 334.208 177.235,332.813 177.320,332.667 177.467 M89.000 178.000 C 87.981 178.438,89.032 178.438,90.400 178.000 C 91.204 177.743,91.243 177.677,90.600 177.668 C 90.160 177.662,89.440 177.811,89.000 178.000 M149.211 178.187 C 148.943 178.509,148.817 179.004,148.931 179.287 C 149.063 179.617,149.148 179.558,149.168 179.120 C 149.186 178.746,149.515 178.256,149.900 178.032 C 150.285 177.808,150.397 177.619,150.149 177.612 C 149.901 177.605,149.479 177.864,149.211 178.187 M163.391 189.100 L 163.400 200.600 165.758 200.722 C 167.055 200.789,168.262 200.699,168.440 200.522 C 168.618 200.345,167.605 200.260,166.188 200.334 L 163.612 200.468 163.497 189.034 L 163.381 177.600 163.391 189.100 M170.173 179.618 C 172.431 182.774,173.235 183.456,171.188 180.478 C 170.234 179.092,169.264 177.840,169.033 177.697 C 168.801 177.554,169.314 178.418,170.173 179.618 M183.373 187.000 C 183.373 192.280,183.430 194.385,183.499 191.677 C 183.568 188.969,183.568 184.649,183.499 182.077 C 183.429 179.505,183.372 181.720,183.373 187.000 M290.667 177.867 C 290.307 178.226,290.338 181.683,290.706 182.261 C 290.900 182.566,293.060 182.770,297.067 182.861 C 300.404 182.938,303.045 182.910,302.935 182.800 C 302.825 182.690,300.095 182.510,296.868 182.400 L 291.000 182.200 291.000 179.899 C 291.000 178.634,290.985 177.599,290.967 177.599 C 290.948 177.600,290.813 177.720,290.667 177.867 M340.000 179.400 C 340.681 180.390,341.328 181.200,341.438 181.200 C 341.548 181.200,341.081 180.390,340.400 179.400 C 339.719 178.410,339.072 177.600,338.962 177.600 C 338.852 177.600,339.319 178.410,340.000 179.400 M266.349 179.546 C 264.695 180.595,261.600 183.874,261.600 184.577 C 261.600 184.739,262.322 183.958,263.205 182.841 C 264.088 181.724,265.753 180.270,266.905 179.609 C 268.057 178.948,268.810 178.406,268.578 178.404 C 268.346 178.402,267.343 178.916,266.349 179.546 M281.600 179.433 C 282.590 179.996,283.937 180.939,284.594 181.528 C 285.636 182.464,285.687 182.478,284.994 181.639 C 284.124 180.587,280.894 178.397,280.222 178.405 C 279.990 178.407,280.610 178.870,281.600 179.433 M307.308 179.136 C 307.918 179.538,308.863 180.472,309.408 181.211 C 309.954 181.950,310.400 182.340,310.400 182.078 C 310.400 181.442,307.336 178.399,306.700 178.403 C 306.425 178.404,306.699 178.734,307.308 179.136 M334.412 181.122 C 335.366 182.508,336.336 183.760,336.567 183.903 C 337.041 184.196,334.192 180.129,333.272 179.200 C 332.945 178.870,333.458 179.735,334.412 181.122 M368.800 179.768 C 368.800 180.081,369.340 180.455,370.000 180.600 C 370.820 180.780,371.278 181.170,371.443 181.829 C 371.576 182.360,371.831 182.705,372.009 182.595 C 372.186 182.485,372.421 182.621,372.530 182.898 C 372.639 183.174,372.699 182.813,372.664 182.097 C 372.624 181.281,372.424 180.860,372.129 180.973 C 371.870 181.072,371.443 180.893,371.180 180.576 C 370.784 180.098,370.898 179.992,371.851 179.953 L 373.000 179.905 371.800 179.600 C 369.824 179.097,368.800 179.155,368.800 179.768 M375.400 180.374 L 376.200 180.692 375.400 180.900 C 374.661 181.091,374.668 181.111,375.486 181.154 C 376.418 181.202,377.374 182.471,376.886 183.012 C 376.729 183.186,376.801 183.214,377.046 183.074 C 377.292 182.934,377.400 182.335,377.287 181.744 C 377.111 180.824,377.191 180.707,377.841 180.935 C 378.567 181.191,378.567 181.176,377.824 180.601 C 377.396 180.270,376.496 180.013,375.824 180.028 C 374.802 180.052,374.732 180.109,375.400 180.374 M81.206 182.194 C 80.463 182.961,79.932 183.650,80.027 183.725 C 80.122 183.800,80.806 183.173,81.546 182.331 C 83.229 180.418,83.012 180.331,81.206 182.194 M208.800 180.925 C 208.800 180.994,209.385 181.579,210.100 182.225 L 211.400 183.400 210.225 182.100 C 209.130 180.888,208.800 180.616,208.800 180.925 M114.737 183.700 C 110.953 188.213,109.418 190.152,109.825 189.905 C 110.323 189.601,116.914 181.600,116.666 181.600 C 116.573 181.600,115.705 182.545,114.737 183.700 M42.399 182.500 C 42.400 182.665,44.785 182.802,47.700 182.805 C 50.615 182.808,53.450 182.925,54.000 183.065 C 54.583 183.212,54.861 183.168,54.668 182.959 C 54.263 182.521,42.398 182.078,42.399 182.500 M91.800 182.811 C 90.847 183.062,91.053 183.114,92.800 183.063 L 95.000 183.000 95.200 186.168 C 95.334 188.285,95.569 189.371,95.910 189.438 C 96.191 189.494,96.236 189.449,96.010 189.337 C 95.785 189.225,95.600 187.834,95.600 186.247 C 95.600 182.422,95.076 181.948,91.800 182.811 M196.500 182.665 C 196.225 182.776,196.000 183.038,196.000 183.247 C 196.000 183.475,196.317 183.459,196.787 183.207 C 197.219 182.976,198.344 182.873,199.287 182.979 C 200.707 183.138,200.795 183.114,199.800 182.833 C 198.406 182.440,197.209 182.379,196.500 182.665 M271.915 182.728 C 271.538 182.878,272.656 183.000,274.400 183.000 C 276.144 183.000,277.262 182.878,276.885 182.728 C 276.508 182.579,275.390 182.456,274.400 182.456 C 273.410 182.456,272.292 182.579,271.915 182.728 M375.400 182.800 C 375.264 183.020,375.388 183.203,375.676 183.206 C 376.057 183.211,376.036 183.318,375.600 183.600 C 374.819 184.104,374.287 184.107,374.597 183.605 C 374.743 183.368,374.560 183.317,374.141 183.478 C 373.707 183.645,373.624 183.808,373.923 183.908 C 374.188 183.996,374.294 184.248,374.158 184.467 C 374.023 184.687,374.442 184.592,375.089 184.257 C 375.737 183.922,376.267 183.368,376.267 183.024 C 376.267 182.321,375.775 182.194,375.400 182.800 M310.668 184.200 C 310.971 186.177,311.202 186.514,311.194 184.967 C 311.191 184.325,311.016 183.530,310.805 183.200 C 310.545 182.791,310.501 183.110,310.668 184.200 M348.637 184.200 C 348.276 184.750,348.043 185.200,348.119 185.200 C 348.194 185.200,348.647 184.750,349.125 184.200 C 349.603 183.650,349.837 183.200,349.643 183.200 C 349.450 183.200,348.997 183.650,348.637 184.200 M355.600 183.662 C 355.600 183.916,355.137 184.771,354.571 185.562 L 353.542 187.000 354.771 185.615 C 355.860 184.388,356.366 183.200,355.800 183.200 C 355.690 183.200,355.600 183.408,355.600 183.662 M56.696 185.846 C 56.812 186.921,56.972 187.875,57.053 187.967 C 57.372 188.329,57.165 184.965,56.837 184.446 C 56.622 184.107,56.568 184.651,56.696 185.846 M344.227 185.400 C 345.600 187.200,345.868 187.203,344.704 185.405 C 344.207 184.638,343.656 184.008,343.480 184.005 C 343.303 184.002,343.640 184.630,344.227 185.400 M338.412 186.722 C 339.366 188.108,340.336 189.360,340.567 189.503 C 341.041 189.796,338.192 185.729,337.272 184.800 C 336.945 184.470,337.458 185.335,338.412 186.722 M62.514 186.600 C 62.517 187.700,62.595 188.103,62.687 187.495 C 62.779 186.886,62.777 185.986,62.682 185.495 C 62.587 185.003,62.511 185.500,62.514 186.600 M85.923 185.500 C 85.218 186.321,84.690 187.200,84.901 187.200 C 84.983 187.200,85.449 186.660,85.937 186.000 C 86.901 184.696,86.892 184.372,85.923 185.500 M371.569 184.900 C 371.067 186.540,371.392 186.716,372.800 185.564 C 373.654 184.866,373.672 184.809,372.926 185.173 C 371.834 185.707,371.482 185.715,371.800 185.200 C 371.936 184.980,371.947 184.800,371.824 184.800 C 371.701 184.800,371.586 184.845,371.569 184.900 M119.759 186.100 C 118.007 188.121,117.487 188.800,117.690 188.800 C 117.807 188.800,118.567 187.990,119.379 187.000 C 120.881 185.166,121.179 184.463,119.759 186.100 M175.773 187.618 C 178.031 190.774,178.835 191.456,176.788 188.478 C 175.834 187.092,174.864 185.840,174.633 185.697 C 174.401 185.554,174.914 186.418,175.773 187.618 M213.058 188.400 C 213.375 190.125,213.602 190.451,213.594 189.167 C 213.591 188.635,213.411 187.930,213.194 187.600 C 212.918 187.178,212.877 187.415,213.058 188.400 M288.056 187.600 C 288.056 187.930,288.211 188.560,288.400 189.000 C 288.617 189.504,288.744 189.578,288.744 189.200 C 288.744 188.870,288.589 188.240,288.400 187.800 C 288.183 187.296,288.056 187.222,288.056 187.600 M304.694 188.503 L 303.988 189.800 304.794 188.856 C 305.480 188.052,305.846 187.194,305.500 187.203 C 305.445 187.204,305.082 187.789,304.694 188.503 M310.846 188.120 C 310.780 189.148,309.683 191.202,308.454 192.599 L 307.400 193.797 308.539 192.799 C 309.922 191.586,311.313 188.987,311.070 188.070 C 310.915 187.485,310.887 187.491,310.846 188.120 M168.806 188.700 C 168.811 189.233,168.892 189.274,169.149 188.869 C 169.392 188.485,170.007 189.069,171.363 190.969 C 172.396 192.416,173.343 193.600,173.469 193.600 C 173.595 193.600,173.524 193.375,173.310 193.100 C 173.097 192.825,172.170 191.565,171.249 190.300 C 169.535 187.946,168.795 187.461,168.806 188.700 M319.472 188.682 C 319.363 188.857,320.427 188.940,321.837 188.866 L 324.400 188.732 324.400 198.148 L 324.400 207.563 321.700 207.714 L 319.000 207.864 321.800 207.832 L 324.600 207.800 324.600 198.200 L 324.600 188.600 322.135 188.482 C 320.779 188.417,319.581 188.507,319.472 188.682 M351.008 190.442 C 350.201 191.565,349.732 192.365,349.966 192.221 C 350.452 191.920,352.932 188.400,352.657 188.400 C 352.557 188.400,351.815 189.319,351.008 190.442 M78.093 190.000 C 78.093 190.770,78.175 191.085,78.276 190.700 C 78.376 190.315,78.376 189.685,78.276 189.300 C 78.175 188.915,78.093 189.230,78.093 190.000 M370.228 189.154 C 370.108 189.349,370.819 189.775,371.810 190.101 C 373.202 190.559,373.511 190.575,373.176 190.170 C 372.937 189.883,372.350 189.576,371.871 189.489 C 371.392 189.403,372.080 189.385,373.400 189.451 C 375.616 189.562,375.677 189.543,374.200 189.208 C 372.107 188.735,370.501 188.713,370.228 189.154 M61.801 189.996 C 61.652 190.467,60.967 191.516,60.279 192.326 C 59.107 193.709,59.099 193.738,60.153 192.800 C 61.325 191.756,62.599 189.666,62.266 189.333 C 62.160 189.227,61.951 189.525,61.801 189.996 M116.324 190.300 C 114.265 192.507,114.160 193.152,115.627 194.551 L 116.936 195.800 115.854 194.452 C 114.668 192.977,114.801 192.438,116.923 190.100 C 117.372 189.605,117.652 189.200,117.545 189.200 C 117.437 189.200,116.888 189.695,116.324 190.300 M48.100 189.899 C 44.965 189.967,42.400 190.152,42.399 190.311 C 42.398 190.689,54.244 190.291,54.634 189.900 C 54.799 189.735,54.678 189.640,54.367 189.688 C 54.055 189.737,51.235 189.832,48.100 189.899 M83.701 191.000 C 83.705 191.880,83.787 192.193,83.883 191.695 C 83.979 191.198,83.975 190.478,83.875 190.095 C 83.775 189.713,83.696 190.120,83.701 191.000 M296.616 189.900 C 289.818 190.051,290.412 189.179,290.412 199.000 C 290.412 208.415,290.290 208.078,293.636 207.921 L 296.200 207.800 296.400 201.800 L 296.600 195.800 297.975 195.669 C 299.025 195.569,299.533 195.758,300.124 196.469 L 300.898 197.400 300.304 196.400 C 299.906 195.731,299.285 195.358,298.428 195.273 C 296.157 195.047,296.000 195.473,296.000 201.868 L 296.000 207.638 293.500 207.519 L 291.000 207.400 291.000 199.000 L 291.000 190.600 296.868 190.400 C 300.095 190.290,302.870 190.065,303.034 189.900 C 303.199 189.735,303.078 189.639,302.767 189.688 C 302.455 189.736,299.687 189.831,296.616 189.900 M108.032 190.500 C 107.995 191.300,108.339 191.375,109.200 190.756 C 109.713 190.387,109.702 190.356,109.126 190.540 C 108.755 190.658,108.364 190.540,108.257 190.278 C 108.151 190.015,108.049 190.115,108.032 190.500 M274.542 190.390 C 275.390 190.554,276.242 190.938,276.436 191.244 C 276.675 191.621,276.790 191.644,276.794 191.314 C 276.802 190.630,275.459 189.992,274.126 190.046 C 273.186 190.084,273.254 190.141,274.542 190.390 M341.785 191.500 C 342.402 192.435,342.983 193.200,343.076 193.200 C 343.364 193.200,341.833 190.766,341.232 190.269 C 340.920 190.011,341.168 190.565,341.785 191.500 M265.328 192.800 C 265.328 194.230,265.401 194.815,265.489 194.100 C 265.578 193.385,265.578 192.215,265.489 191.500 C 265.401 190.785,265.328 191.370,265.328 192.800 M272.014 191.174 C 271.786 191.599,271.618 192.364,271.641 192.874 C 271.674 193.617,271.740 193.556,271.977 192.565 C 272.139 191.886,272.402 191.121,272.560 190.865 C 272.718 190.609,272.753 190.400,272.638 190.400 C 272.522 190.400,272.242 190.748,272.014 191.174 M283.328 192.800 C 283.328 194.230,283.401 194.815,283.489 194.100 C 283.578 193.385,283.578 192.215,283.489 191.500 C 283.401 190.785,283.328 191.370,283.328 192.800 M230.400 191.017 C 230.400 191.136,230.774 191.631,231.231 192.117 L 232.063 193.000 231.567 191.900 C 231.136 190.944,230.400 190.387,230.400 191.017 M373.994 191.700 C 373.989 192.428,373.914 192.485,373.600 192.000 C 373.311 191.553,373.211 191.774,373.206 192.871 C 373.199 194.469,374.024 195.600,375.196 195.600 C 375.602 195.600,376.211 195.706,376.549 195.836 C 377.470 196.189,379.206 194.258,379.172 192.918 C 379.147 191.933,379.103 191.895,378.800 192.600 C 378.611 193.040,378.431 193.220,378.400 193.000 C 378.369 192.780,378.204 192.960,378.034 193.400 C 377.843 193.892,377.199 194.297,376.362 194.453 C 375.191 194.670,375.243 194.690,376.735 194.598 C 377.988 194.520,378.348 194.612,378.033 194.927 C 377.501 195.459,374.835 195.327,374.119 194.733 C 373.513 194.230,373.411 193.436,374.000 193.800 C 374.242 193.949,374.400 193.404,374.400 192.424 C 374.400 191.531,374.310 190.800,374.200 190.800 C 374.090 190.800,373.997 191.205,373.994 191.700 M259.701 192.600 C 259.705 193.480,259.787 193.793,259.883 193.295 C 259.979 192.798,259.975 192.078,259.875 191.695 C 259.775 191.313,259.696 191.720,259.701 192.600 M237.634 192.600 C 237.634 192.820,237.978 193.630,238.400 194.400 C 238.822 195.170,239.166 195.620,239.166 195.400 C 239.166 195.180,238.822 194.370,238.400 193.600 C 237.978 192.830,237.634 192.380,237.634 192.600 M349.049 193.415 C 348.912 193.773,348.800 197.111,348.800 200.833 L 348.800 207.600 346.209 207.600 L 343.618 207.600 343.495 200.700 L 343.372 193.800 343.386 200.800 L 343.400 207.800 346.200 207.800 L 349.000 207.800 349.200 200.400 C 349.416 192.397,349.418 192.456,349.049 193.415 M83.693 194.400 C 83.693 195.170,83.775 195.485,83.876 195.100 C 83.976 194.715,83.976 194.085,83.876 193.700 C 83.775 193.315,83.693 193.630,83.693 194.400 M57.900 194.032 C 57.515 194.256,57.214 194.746,57.232 195.120 C 57.257 195.674,57.306 195.689,57.496 195.200 C 57.625 194.870,58.016 194.381,58.365 194.113 C 59.137 193.520,58.861 193.472,57.900 194.032 M181.234 195.300 C 181.950 196.345,182.684 197.200,182.865 197.200 C 183.046 197.200,182.850 196.795,182.428 196.300 C 180.215 193.704,180.041 193.558,181.234 195.300 M306.195 194.154 C 305.548 194.627,305.508 194.848,305.921 195.654 L 306.404 196.600 306.166 195.671 C 306.002 195.033,306.159 194.566,306.664 194.183 C 307.069 193.876,307.299 193.620,307.176 193.613 C 307.054 193.606,306.612 193.849,306.195 194.154 M78.093 195.200 C 78.093 195.970,78.175 196.285,78.276 195.900 C 78.376 195.515,78.376 194.885,78.276 194.500 C 78.175 194.115,78.093 194.430,78.093 195.200 M48.000 195.520 C 48.000 195.696,48.632 195.766,49.406 195.675 C 50.222 195.580,51.102 195.739,51.506 196.056 C 52.134 196.548,52.148 196.533,51.651 195.900 C 51.095 195.191,48.000 194.868,48.000 195.520 M190.667 195.867 C 190.520 196.013,190.400 198.803,190.400 202.067 L 190.400 208.000 195.100 207.914 L 199.800 207.829 195.300 207.701 L 190.800 207.574 190.800 201.753 L 190.800 195.932 193.401 196.066 C 194.831 196.140,196.001 196.065,196.001 195.900 C 196.000 195.529,191.035 195.498,190.667 195.867 M213.246 196.067 C 213.221 196.434,213.096 197.064,212.970 197.467 C 212.752 198.162,212.763 198.163,213.197 197.487 C 213.448 197.096,213.573 196.466,213.473 196.087 C 213.311 195.468,213.288 195.466,213.246 196.067 M116.800 196.125 C 116.800 196.194,117.373 196.779,118.074 197.425 L 119.349 198.600 118.374 197.322 C 117.547 196.237,116.800 195.669,116.800 196.125 M176.812 198.722 C 177.766 200.108,178.736 201.360,178.967 201.503 C 179.441 201.796,176.592 197.729,175.672 196.800 C 175.345 196.470,175.858 197.335,176.812 198.722 M110.000 197.244 C 109.505 197.600,109.531 197.633,110.151 197.431 C 110.691 197.255,111.291 197.611,112.280 198.693 L 113.658 200.200 112.362 198.500 C 110.949 196.646,110.881 196.610,110.000 197.244 M368.871 197.467 C 368.942 197.834,369.270 198.223,369.600 198.332 C 370.118 198.503,370.123 198.437,369.643 197.856 C 369.151 197.260,369.174 197.210,369.843 197.429 C 370.466 197.632,370.494 197.599,370.000 197.244 C 369.134 196.621,368.722 196.702,368.871 197.467 M206.800 197.519 C 206.800 197.768,206.222 198.653,205.515 199.486 C 204.363 200.843,204.346 200.896,205.351 200.000 C 206.617 198.872,207.380 197.646,207.032 197.299 C 206.905 197.171,206.800 197.270,206.800 197.519 M235.000 199.200 C 235.341 199.860,235.711 200.400,235.821 200.400 C 235.931 200.400,235.741 199.860,235.400 199.200 C 235.059 198.540,234.689 198.000,234.579 198.000 C 234.469 198.000,234.659 198.540,235.000 199.200 M266.717 198.600 C 266.945 199.040,267.732 199.940,268.466 200.599 L 269.800 201.798 268.401 200.199 C 267.632 199.320,266.845 198.420,266.652 198.200 C 266.460 197.980,266.489 198.160,266.717 198.600 M280.626 199.913 C 279.215 201.603,279.188 201.675,280.360 200.600 C 281.471 199.582,282.688 197.970,282.314 198.013 C 282.251 198.020,281.492 198.875,280.626 199.913 M84.800 198.525 C 84.800 198.594,85.373 199.179,86.074 199.825 L 87.349 201.000 86.374 199.722 C 85.547 198.637,84.800 198.069,84.800 198.525 M107.177 200.300 C 104.201 203.524,103.019 204.909,103.455 204.664 C 103.964 204.378,108.974 198.800,108.722 198.800 C 108.634 198.800,107.939 199.475,107.177 200.300 M119.200 198.925 C 119.200 198.994,119.785 199.579,120.500 200.225 L 121.800 201.400 120.625 200.100 C 119.530 198.888,119.200 198.616,119.200 198.925 M374.745 199.558 C 375.205 199.849,375.205 199.932,374.746 200.085 C 374.381 200.206,374.530 200.441,375.201 200.798 C 376.116 201.286,376.154 201.275,375.651 200.665 C 375.186 200.101,375.186 199.999,375.651 199.994 C 376.082 199.989,376.071 199.905,375.600 199.600 C 375.270 199.387,374.820 199.212,374.600 199.212 C 374.380 199.212,374.445 199.368,374.745 199.558 M211.006 201.488 L 210.304 202.600 211.230 201.711 C 211.739 201.222,212.055 200.722,211.932 200.599 C 211.809 200.476,211.392 200.876,211.006 201.488 M261.600 200.697 C 261.600 201.427,265.256 205.210,266.552 205.822 C 267.238 206.146,267.461 206.184,267.046 205.906 C 265.303 204.736,263.811 203.332,262.740 201.854 C 262.113 200.988,261.600 200.468,261.600 200.697 M370.608 201.124 C 370.483 201.449,370.475 201.809,370.591 201.924 C 370.706 202.039,370.800 201.923,370.800 201.667 C 370.800 201.410,371.003 201.245,371.250 201.300 C 371.498 201.355,371.773 201.205,371.861 200.967 C 371.950 200.728,371.755 200.533,371.428 200.533 C 371.102 200.533,370.732 200.799,370.608 201.124 M80.791 202.388 C 81.257 203.041,81.842 203.702,82.091 203.856 C 82.341 204.011,82.041 203.476,81.425 202.668 C 80.088 200.915,79.584 200.692,80.791 202.388 M123.136 203.517 C 124.091 204.661,125.081 205.725,125.336 205.880 C 125.591 206.036,125.019 205.227,124.064 204.083 C 123.109 202.939,122.119 201.875,121.864 201.720 C 121.609 201.564,122.181 202.373,123.136 203.517 M375.430 202.267 C 375.317 202.560,375.332 203.077,375.462 203.416 C 375.592 203.755,375.541 204.004,375.349 203.969 C 373.705 203.669,372.671 204.019,373.424 204.621 C 374.171 205.218,374.162 205.232,373.200 205.002 C 372.334 204.794,372.297 204.822,372.924 205.214 C 373.722 205.713,374.987 205.426,374.619 204.830 C 374.491 204.624,374.598 204.325,374.855 204.166 C 375.148 203.985,375.216 204.050,375.038 204.338 C 374.881 204.592,374.924 204.800,375.134 204.800 C 375.664 204.800,376.022 203.724,375.738 202.984 C 375.595 202.609,375.698 202.413,376.001 202.484 C 376.275 202.548,376.572 202.405,376.661 202.167 C 376.750 201.928,376.555 201.733,376.228 201.733 C 375.902 201.733,375.542 201.973,375.430 202.267 M67.416 202.373 C 67.271 202.608,66.537 202.800,65.784 202.800 C 64.223 202.800,63.852 203.546,64.072 206.238 L 64.200 207.800 70.600 207.800 L 77.000 207.800 77.038 205.600 L 77.076 203.400 76.917 205.500 L 76.758 207.600 70.558 207.600 L 64.358 207.600 64.479 205.500 C 64.599 203.418,64.612 203.399,66.000 203.271 C 67.412 203.142,68.344 202.611,67.913 202.180 C 67.785 202.052,67.561 202.139,67.416 202.373 M73.960 202.920 C 74.146 203.106,74.906 203.196,75.649 203.119 C 76.967 202.983,76.958 202.975,75.310 202.780 C 74.381 202.671,73.773 202.733,73.960 202.920 M100.736 205.072 L 100.873 207.707 95.336 207.527 C 91.760 207.411,90.364 207.467,91.393 207.687 C 92.268 207.873,94.788 207.975,96.993 207.913 L 101.000 207.800 101.122 205.442 C 101.189 204.145,101.099 202.938,100.922 202.760 C 100.745 202.582,100.661 203.622,100.736 205.072 M273.300 202.687 C 273.905 202.778,274.895 202.778,275.500 202.687 C 276.105 202.595,275.610 202.520,274.400 202.520 C 273.190 202.520,272.695 202.595,273.300 202.687 M283.972 204.111 C 283.187 204.820,282.197 205.628,281.772 205.906 C 281.347 206.184,281.540 206.155,282.200 205.841 C 282.860 205.528,283.929 204.715,284.575 204.036 C 286.099 202.433,285.788 202.471,283.972 204.111 M118.216 206.100 L 119.696 208.000 123.025 208.000 C 126.453 208.000,127.045 207.782,126.336 206.781 C 126.001 206.307,125.966 206.329,126.150 206.900 C 126.352 207.528,126.038 207.600,123.098 207.600 L 119.822 207.600 118.278 205.900 L 116.735 204.200 118.216 206.100 M182.000 206.200 L 183.238 208.000 186.119 207.921 L 189.000 207.841 186.142 207.704 C 183.310 207.568,183.275 207.552,182.236 205.983 C 181.660 205.112,181.093 204.400,180.975 204.400 C 180.858 204.400,181.319 205.210,182.000 206.200 M238.749 206.100 C 239.171 206.638,239.820 206.783,241.549 206.726 L 243.800 206.652 241.612 206.502 C 240.409 206.420,239.149 206.138,238.812 205.876 C 238.276 205.459,238.268 205.487,238.749 206.100 M62.562 206.932 C 62.780 207.603,62.557 207.652,59.836 207.532 C 58.207 207.459,56.958 207.535,57.060 207.700 C 57.311 208.103,62.700 208.086,62.950 207.681 C 63.058 207.505,62.962 207.100,62.736 206.781 C 62.406 206.315,62.371 206.345,62.562 206.932 M203.000 206.800 C 202.496 207.017,202.422 207.144,202.800 207.144 C 203.130 207.144,203.760 206.989,204.200 206.800 C 204.704 206.583,204.778 206.456,204.400 206.456 C 204.070 206.456,203.440 206.611,203.000 206.800 M304.812 206.651 C 304.785 207.651,305.973 208.036,308.664 207.897 L 311.400 207.757 308.520 207.678 C 306.254 207.617,305.553 207.451,305.232 206.900 C 305.008 206.515,304.819 206.403,304.812 206.651 M47.600 207.182 C 47.600 207.392,46.385 207.626,44.900 207.703 L 42.200 207.843 45.100 207.922 C 47.446 207.985,48.000 207.885,48.000 207.400 C 48.000 207.070,47.910 206.800,47.800 206.800 C 47.690 206.800,47.600 206.972,47.600 207.182 M138.006 207.300 C 138.000 208.033,143.302 208.403,143.739 207.700 C 143.842 207.535,142.749 207.461,141.309 207.537 C 139.435 207.634,138.596 207.521,138.352 207.137 C 138.090 206.723,138.011 206.761,138.006 207.300 M227.400 207.600 L 224.600 207.859 227.500 207.929 C 229.214 207.971,230.400 207.836,230.400 207.600 C 230.400 207.380,230.355 207.232,230.300 207.271 C 230.245 207.309,228.940 207.458,227.400 207.600 M274.600 207.600 L 271.800 207.859 274.400 207.901 C 275.830 207.925,277.360 207.789,277.800 207.600 C 278.675 207.224,278.670 207.224,274.600 207.600 M157.300 207.891 C 158.125 207.978,159.475 207.978,160.300 207.891 C 161.125 207.805,160.450 207.734,158.800 207.734 C 157.150 207.734,156.475 207.805,157.300 207.891 " stroke="none" fill="#747474" fill-rule="evenodd"></path><path id="path3" d="M339.750 157.000 C 339.751 159.420,339.816 160.358,339.896 159.085 C 339.976 157.812,339.975 155.832,339.894 154.685 C 339.814 153.538,339.749 154.580,339.750 157.000 M333.495 153.489 C 334.232 153.581,335.050 154.022,335.395 154.514 C 335.728 154.989,336.000 155.186,336.000 154.951 C 336.000 154.140,334.533 153.200,333.369 153.264 C 332.214 153.327,332.216 153.330,333.495 153.489 M341.845 153.528 C 341.733 153.708,342.173 153.777,342.821 153.682 C 343.470 153.587,344.000 153.440,344.000 153.355 C 344.000 153.050,342.043 153.207,341.845 153.528 M351.771 155.100 C 351.153 155.925,350.212 157.230,349.679 158.000 L 348.711 159.400 349.755 158.200 C 351.101 156.653,353.302 153.600,353.072 153.600 C 352.975 153.600,352.389 154.275,351.771 155.100 M355.351 159.200 C 355.351 161.730,355.416 162.765,355.496 161.500 C 355.575 160.235,355.575 158.165,355.496 156.900 C 355.416 155.635,355.351 156.670,355.351 159.200 M330.554 155.776 C 330.432 156.092,330.537 156.677,330.786 157.076 C 331.180 157.707,331.204 157.678,330.976 156.850 C 330.809 156.242,330.910 155.776,331.257 155.556 C 331.674 155.292,331.681 155.211,331.287 155.206 C 331.006 155.203,330.675 155.459,330.554 155.776 M336.093 156.800 C 336.093 157.570,336.175 157.885,336.276 157.500 C 336.376 157.115,336.376 156.485,336.276 156.100 C 336.175 155.715,336.093 156.030,336.093 156.800 M342.505 155.887 C 343.114 155.979,344.014 155.977,344.505 155.882 C 344.997 155.787,344.500 155.711,343.400 155.714 C 342.300 155.717,341.897 155.795,342.505 155.887 M334.446 156.667 C 334.417 157.225,334.009 157.676,333.300 157.935 C 332.695 158.156,332.481 158.351,332.824 158.368 C 333.860 158.421,334.905 157.416,334.690 156.574 C 334.513 155.878,334.488 155.887,334.446 156.667 M345.600 156.533 C 345.600 157.055,345.215 157.200,343.824 157.200 C 342.847 157.200,341.964 157.335,341.861 157.500 C 341.759 157.665,342.571 157.737,343.666 157.659 C 345.517 157.529,346.539 156.806,345.849 156.116 C 345.712 155.979,345.600 156.167,345.600 156.533 M353.130 156.348 C 354.025 156.916,353.573 159.424,352.600 159.290 C 351.866 159.189,351.858 159.216,352.503 159.612 C 353.569 160.266,354.000 159.737,354.000 157.776 C 354.000 156.349,353.863 156.001,353.300 156.006 C 352.768 156.011,352.727 156.093,353.130 156.348 M351.755 157.812 C 351.390 158.369,351.164 158.898,351.253 158.987 C 351.342 159.076,351.718 158.620,352.089 157.974 C 352.914 156.536,352.669 156.417,351.755 157.812 M361.729 157.906 C 361.250 157.984,360.620 158.352,360.329 158.724 C 359.858 159.325,359.874 159.342,360.472 158.874 C 360.842 158.585,361.697 158.332,362.372 158.313 C 363.048 158.294,363.600 158.235,363.600 158.182 C 363.600 157.938,362.516 157.778,361.729 157.906 M364.367 158.945 C 364.900 159.601,366.400 160.593,366.400 160.289 C 366.400 160.213,365.815 159.722,365.100 159.199 C 364.296 158.610,364.016 158.513,364.367 158.945 M332.700 159.632 C 331.926 160.083,331.802 161.079,332.406 162.000 C 332.687 162.430,332.730 162.242,332.557 161.340 C 332.273 159.858,333.517 159.125,334.719 160.067 C 335.332 160.547,335.345 160.530,334.851 159.900 C 334.230 159.108,333.711 159.043,332.700 159.632 M336.700 160.026 C 338.092 161.612,337.697 162.839,336.257 161.400 C 335.927 161.070,335.509 160.806,335.329 160.813 C 334.769 160.836,336.855 162.400,337.444 162.400 C 338.378 162.400,338.064 160.996,336.900 159.970 L 335.800 159.000 336.700 160.026 M361.544 159.900 C 360.445 161.227,360.202 161.829,361.239 160.655 C 361.921 159.884,362.459 159.589,362.801 159.801 C 363.146 160.014,363.227 159.967,363.038 159.662 C 362.640 159.018,362.219 159.085,361.544 159.900 M341.600 160.064 C 341.600 160.210,342.672 160.390,343.982 160.464 C 345.291 160.539,346.236 160.482,346.082 160.337 C 345.700 159.981,341.599 159.731,341.600 160.064 M347.789 160.412 C 347.100 161.174,347.096 161.267,347.727 161.898 C 348.358 162.529,348.444 162.524,349.100 161.808 C 349.768 161.078,349.768 161.068,349.083 161.585 C 347.960 162.433,347.230 161.471,348.191 160.409 C 348.594 159.964,348.834 159.600,348.724 159.600 C 348.614 159.600,348.193 159.966,347.789 160.412 M358.238 161.601 C 356.513 164.001,356.434 165.138,357.900 166.430 L 359.000 167.400 358.100 166.374 C 356.853 164.953,356.969 163.923,358.638 161.601 C 359.428 160.500,359.985 159.600,359.875 159.600 C 359.765 159.600,359.028 160.500,358.238 161.601 M364.613 161.200 C 365.915 162.851,366.575 162.980,366.666 161.600 C 366.723 160.719,366.708 160.707,366.538 161.500 C 366.289 162.660,366.222 162.645,364.749 161.100 L 363.509 159.800 364.613 161.200 M341.700 161.891 C 342.525 161.978,343.875 161.978,344.700 161.891 C 345.525 161.805,344.850 161.734,343.200 161.734 C 341.550 161.734,340.875 161.805,341.700 161.891 M353.646 162.900 C 353.621 163.505,353.675 164.000,353.767 164.000 C 353.859 164.000,354.264 164.114,354.667 164.254 C 355.342 164.487,355.347 164.464,354.734 163.954 C 354.367 163.649,353.983 163.040,353.880 162.600 C 353.740 162.002,353.681 162.077,353.646 162.900 M359.023 163.289 C 358.307 164.311,358.228 165.046,358.795 165.397 C 359.023 165.538,359.089 165.376,358.951 165.018 C 358.820 164.675,359.006 163.945,359.365 163.397 C 360.175 162.162,359.878 162.068,359.023 163.289 M331.200 163.686 C 331.200 163.859,331.560 164.000,332.000 164.000 C 332.440 164.000,332.800 163.859,332.800 163.686 C 332.800 163.513,332.440 163.371,332.000 163.371 C 331.560 163.371,331.200 163.513,331.200 163.686 M369.200 164.720 C 369.200 165.116,369.420 165.660,369.690 165.930 C 370.077 166.317,370.067 166.608,369.645 167.310 C 369.135 168.160,369.143 168.169,369.829 167.512 C 370.460 166.908,370.482 166.700,370.007 165.812 C 369.102 164.122,369.961 164.121,371.462 165.809 L 372.876 167.400 371.604 165.700 C 370.278 163.926,369.200 163.487,369.200 164.720 M360.344 166.368 C 360.864 166.826,361.539 167.200,361.844 167.200 C 362.536 167.200,362.575 167.863,361.900 168.135 C 361.625 168.246,361.580 168.348,361.800 168.362 C 362.526 168.409,363.307 167.697,363.028 167.245 C 362.876 167.000,362.443 166.800,362.065 166.800 C 361.687 166.800,360.933 166.516,360.389 166.168 L 359.400 165.536 360.344 166.368 M373.100 167.999 C 374.144 169.170,373.731 170.262,372.634 169.232 C 371.533 168.197,370.523 168.338,369.353 169.690 L 368.600 170.560 369.754 169.680 C 371.202 168.576,371.752 168.574,372.479 169.668 C 372.816 170.175,373.252 170.415,373.528 170.245 C 374.225 169.814,374.101 168.575,373.300 167.968 C 372.704 167.518,372.675 167.522,373.100 167.999 M366.100 170.061 C 364.184 171.564,363.411 172.800,364.387 172.800 C 364.601 172.800,364.685 172.565,364.574 172.277 C 364.457 171.971,365.311 171.059,366.637 170.077 C 367.882 169.155,368.743 168.403,368.550 168.407 C 368.358 168.411,367.255 169.155,366.100 170.061 M366.785 171.629 L 365.400 172.858 366.900 171.781 C 368.226 170.830,368.657 170.400,368.285 170.400 C 368.222 170.400,367.547 170.953,366.785 171.629 M42.234 177.457 C 42.023 178.005,42.082 178.030,42.588 177.610 C 43.041 177.234,44.904 177.146,49.898 177.262 C 53.584 177.348,56.060 177.301,55.400 177.157 C 52.561 176.537,42.499 176.766,42.234 177.457 M67.724 177.300 C 67.311 177.938,66.898 202.401,67.300 202.400 C 67.465 202.400,67.603 196.955,67.606 190.300 C 67.613 176.388,67.432 177.119,70.836 177.279 L 73.400 177.400 73.609 190.000 L 73.817 202.600 73.909 190.333 C 73.959 183.586,73.891 177.781,73.757 177.433 C 73.447 176.625,68.235 176.510,67.724 177.300 M91.400 177.178 C 90.519 177.323,92.317 177.432,95.400 177.421 L 101.000 177.400 101.110 183.483 L 101.221 189.566 98.110 189.712 L 95.000 189.858 98.200 189.829 L 101.400 189.800 101.511 183.854 C 101.586 179.810,101.475 177.731,101.162 177.354 C 100.671 176.763,94.582 176.652,91.400 177.178 M102.480 177.280 C 102.122 177.638,102.023 181.259,102.092 191.580 L 102.184 205.400 102.392 191.400 L 102.600 177.400 105.164 177.279 C 108.461 177.124,108.387 176.962,108.394 184.333 C 108.401 191.161,108.464 191.271,110.719 188.378 L 112.104 186.600 110.464 188.400 L 108.824 190.200 108.812 183.980 C 108.804 179.690,108.651 177.611,108.320 177.280 C 107.693 176.653,103.107 176.653,102.480 177.280 M119.860 177.100 C 119.758 177.265,121.187 177.342,123.037 177.271 C 127.246 177.109,127.302 177.359,123.974 181.431 C 122.640 183.064,121.643 184.400,121.758 184.400 C 122.521 184.400,127.170 177.846,126.759 177.350 C 126.267 176.757,120.211 176.537,119.860 177.100 M163.280 177.280 C 162.925 177.635,162.824 180.727,162.891 189.180 L 162.982 200.600 163.191 189.000 L 163.400 177.400 166.463 177.400 C 168.148 177.400,169.318 177.268,169.063 177.106 C 168.303 176.624,163.801 176.759,163.280 177.280 M183.280 177.280 C 182.935 177.625,182.799 180.345,182.798 186.980 L 182.796 196.200 181.779 195.000 L 180.761 193.800 181.681 195.295 C 183.125 197.643,183.180 197.364,183.293 187.100 L 183.400 177.400 186.100 177.282 C 189.402 177.137,188.938 174.873,189.197 192.400 L 189.419 207.400 189.510 192.874 C 189.568 183.451,189.455 178.076,189.186 177.574 C 188.698 176.662,184.126 176.434,183.280 177.280 M190.480 177.280 C 190.142 177.618,190.025 179.487,190.084 183.580 L 190.167 189.400 190.384 183.400 L 190.600 177.400 196.200 177.427 C 199.911 177.446,201.193 177.354,200.000 177.157 C 197.028 176.665,191.017 176.743,190.480 177.280 M224.594 177.210 C 224.443 177.454,224.428 177.761,224.560 177.893 C 224.692 178.025,224.800 177.923,224.800 177.667 C 224.800 177.145,229.486 177.007,230.249 177.506 C 230.495 177.668,231.342 179.060,232.129 180.600 C 232.916 182.140,233.564 183.220,233.568 183.000 C 233.572 182.780,232.905 181.340,232.087 179.800 L 230.600 177.000 227.734 176.883 C 225.946 176.810,224.765 176.933,224.594 177.210 M251.762 177.700 L 251.000 178.600 251.854 177.880 C 252.522 177.316,253.261 177.186,255.254 177.280 L 257.800 177.400 257.800 189.062 C 257.800 195.476,257.935 200.640,258.100 200.538 C 258.635 200.208,258.462 177.822,257.920 177.280 C 257.015 176.375,252.631 176.674,251.762 177.700 M271.800 177.169 C 270.792 177.331,271.754 177.428,274.400 177.432 C 277.505 177.437,278.131 177.363,276.800 177.149 C 274.722 176.815,274.001 176.817,271.800 177.169 M290.941 177.106 C 290.689 177.268,293.741 177.400,297.725 177.400 C 301.708 177.400,304.435 177.286,303.784 177.147 C 302.100 176.788,291.491 176.754,290.941 177.106 M312.667 177.067 C 312.148 177.586,312.408 178.091,312.959 177.634 C 313.356 177.305,316.078 177.203,322.321 177.285 C 327.163 177.348,331.041 177.265,330.939 177.100 C 330.709 176.729,313.036 176.697,312.667 177.067 M332.260 177.100 C 332.158 177.265,333.512 177.341,335.271 177.268 C 337.912 177.160,338.618 177.264,339.334 177.868 L 340.200 178.600 339.438 177.700 C 338.666 176.788,332.762 176.295,332.260 177.100 M149.300 177.465 C 149.025 177.576,148.800 177.854,148.800 178.082 C 148.800 178.324,149.063 178.279,149.430 177.975 C 150.066 177.447,150.777 177.965,150.794 178.967 C 150.797 179.168,150.905 179.229,151.032 179.101 C 151.314 178.819,150.488 177.187,150.086 177.232 C 149.929 177.249,149.575 177.354,149.300 177.465 M87.400 178.000 C 86.896 178.217,86.822 178.344,87.200 178.344 C 87.530 178.344,88.160 178.189,88.600 178.000 C 89.104 177.783,89.178 177.656,88.800 177.656 C 88.470 177.656,87.840 177.811,87.400 178.000 M203.000 178.000 C 203.440 178.189,204.070 178.344,204.400 178.344 C 204.778 178.344,204.704 178.217,204.200 178.000 C 203.760 177.811,203.130 177.656,202.800 177.656 C 202.422 177.656,202.496 177.783,203.000 178.000 M171.990 181.506 C 173.368 183.544,174.674 185.322,174.893 185.457 C 175.359 185.745,170.948 179.282,170.076 178.400 C 169.750 178.070,170.611 179.468,171.990 181.506 M331.320 180.000 C 331.320 181.210,331.395 181.705,331.487 181.100 C 331.578 180.495,331.578 179.505,331.487 178.900 C 331.395 178.295,331.320 178.790,331.320 180.000 M59.000 178.657 C 61.037 180.464,61.787 180.991,61.002 180.063 C 60.566 179.548,59.847 178.941,59.404 178.714 C 58.962 178.487,58.780 178.462,59.000 178.657 M84.700 179.029 C 83.149 179.870,83.325 180.161,84.900 179.359 C 86.408 178.593,86.675 178.394,86.167 178.416 C 85.965 178.425,85.305 178.701,84.700 179.029 M265.700 179.574 C 264.809 180.219,263.953 180.952,263.798 181.203 C 263.582 181.553,266.712 179.354,267.567 178.556 C 268.187 177.976,267.047 178.598,265.700 179.574 M282.000 179.083 C 282.550 179.477,283.810 180.513,284.800 181.384 L 286.600 182.969 285.107 181.375 C 284.286 180.498,283.026 179.462,282.307 179.073 C 281.044 178.389,281.034 178.390,282.000 179.083 M308.670 179.903 C 309.511 180.763,310.276 181.406,310.368 181.332 C 310.606 181.141,308.745 179.205,307.870 178.733 C 307.468 178.517,307.828 179.043,308.670 179.903 M333.408 180.358 C 334.215 181.481,334.957 182.400,335.057 182.400 C 335.332 182.400,332.852 178.880,332.366 178.579 C 332.132 178.435,332.601 179.235,333.408 180.358 M250.465 179.817 C 249.795 181.288,249.923 181.602,250.647 180.265 C 250.986 179.640,251.188 179.054,251.096 178.963 C 251.005 178.871,250.721 179.256,250.465 179.817 M341.186 180.580 C 341.859 181.558,342.601 182.477,342.834 182.621 C 343.068 182.765,342.599 181.965,341.792 180.842 C 339.990 178.334,339.493 178.119,341.186 180.580 M374.305 179.883 C 374.802 179.979,375.522 179.975,375.905 179.875 C 376.287 179.775,375.880 179.696,375.000 179.701 C 374.120 179.705,373.807 179.787,374.305 179.883 M81.381 181.700 L 79.800 183.400 81.500 181.819 C 83.081 180.348,83.384 180.000,83.081 180.000 C 83.016 180.000,82.251 180.765,81.381 181.700 M372.800 181.124 C 372.800 181.337,373.025 181.503,373.300 181.493 C 373.575 181.482,374.340 181.508,375.000 181.550 L 376.200 181.627 375.256 182.413 C 374.058 183.411,374.673 183.434,375.967 182.439 C 376.872 181.743,376.884 181.682,376.167 181.478 C 374.176 180.911,372.800 180.767,372.800 181.124 M378.446 181.420 C 378.421 181.871,378.221 182.457,378.001 182.721 C 377.782 182.986,377.890 182.953,378.240 182.649 C 378.590 182.344,378.790 181.758,378.685 181.347 C 378.512 180.674,378.488 180.681,378.446 181.420 M312.503 182.000 C 312.642 182.511,314.053 182.602,322.033 182.612 L 331.400 182.623 322.219 182.504 C 315.522 182.417,312.943 182.251,312.688 181.892 C 312.434 181.534,312.384 181.564,312.503 182.000 M42.102 182.400 C 42.236 182.893,43.190 183.004,47.433 183.020 L 52.600 183.040 47.616 182.907 C 44.291 182.818,42.516 182.612,42.285 182.287 C 42.037 181.937,41.985 181.969,42.102 182.400 M113.987 184.016 C 113.058 185.125,112.366 186.091,112.449 186.163 C 112.532 186.234,113.374 185.327,114.319 184.147 C 116.495 181.429,116.237 181.328,113.987 184.016 M211.374 183.400 C 212.767 185.452,213.052 185.695,212.277 184.171 C 211.934 183.495,211.349 182.690,210.978 182.382 C 210.607 182.074,210.785 182.532,211.374 183.400 M290.399 182.900 C 290.400 183.065,292.875 183.168,295.900 183.128 C 301.479 183.055,300.817 182.900,294.099 182.707 C 292.064 182.648,290.399 182.735,290.399 182.900 M62.673 184.400 C 62.804 185.390,62.976 186.275,63.056 186.367 C 63.357 186.714,63.128 184.164,62.790 183.400 C 62.553 182.866,62.514 183.198,62.673 184.400 M273.500 183.082 C 273.995 183.178,274.805 183.178,275.300 183.082 C 275.795 182.987,275.390 182.909,274.400 182.909 C 273.410 182.909,273.005 182.987,273.500 183.082 M352.900 183.092 C 356.279 183.245,356.442 183.407,355.167 185.338 L 354.334 186.600 355.371 185.400 C 357.078 183.425,356.665 183.004,352.996 182.976 L 349.800 182.952 352.900 183.092 M54.792 183.714 C 55.338 183.990,56.010 184.662,56.286 185.208 C 56.594 185.817,56.790 185.956,56.794 185.570 C 56.801 184.798,55.163 183.198,54.374 183.206 C 54.058 183.209,54.246 183.438,54.792 183.714 M90.000 183.618 C 89.562 183.915,89.724 183.952,90.600 183.756 C 92.071 183.427,92.390 183.198,91.367 183.206 C 90.945 183.209,90.330 183.395,90.000 183.618 M94.937 186.200 C 94.939 187.960,95.009 188.630,95.093 187.689 C 95.178 186.749,95.177 185.309,95.091 184.489 C 95.005 183.670,94.936 184.440,94.937 186.200 M196.317 186.300 L 196.200 189.400 193.200 189.628 L 190.200 189.856 193.000 189.922 C 194.540 189.958,196.009 189.855,196.265 189.692 C 196.766 189.373,197.196 183.197,196.717 183.199 C 196.561 183.200,196.381 184.595,196.317 186.300 M302.800 183.484 C 303.130 183.605,303.760 183.996,304.200 184.352 C 304.993 184.994,304.994 184.992,304.238 184.100 C 303.819 183.605,303.189 183.214,302.838 183.232 C 302.296 183.258,302.291 183.297,302.800 183.484 M347.999 184.500 C 347.410 185.304,347.313 185.584,347.745 185.233 C 348.401 184.700,349.393 183.200,349.089 183.200 C 349.013 183.200,348.522 183.785,347.999 184.500 M375.900 183.829 C 374.405 184.640,374.496 184.978,376.000 184.200 C 376.660 183.859,377.200 183.494,377.200 183.390 C 377.200 183.132,377.157 183.147,375.900 183.829 M87.354 184.897 C 86.014 185.937,84.832 187.256,84.813 187.731 C 84.806 187.913,85.287 187.482,85.883 186.774 C 86.479 186.067,87.514 185.153,88.183 184.745 C 88.852 184.337,89.199 184.002,88.954 184.001 C 88.709 184.001,87.989 184.403,87.354 184.897 M247.872 185.419 C 246.932 187.389,247.064 187.724,248.047 185.862 C 248.493 185.016,248.787 184.254,248.701 184.167 C 248.614 184.081,248.241 184.644,247.872 185.419 M268.983 184.709 C 268.533 185.089,267.907 185.760,267.590 186.200 C 267.274 186.640,267.685 186.370,268.503 185.600 C 269.322 184.830,269.993 184.155,269.996 184.100 C 270.004 183.899,269.783 184.032,268.983 184.709 M279.978 185.337 C 280.737 186.142,281.422 186.800,281.501 186.800 C 281.861 186.800,280.377 185.062,279.537 184.500 C 278.918 184.086,279.068 184.370,279.978 185.337 M337.373 186.018 C 339.647 189.196,340.383 189.813,338.456 186.925 C 337.547 185.563,336.581 184.312,336.308 184.143 C 336.035 183.974,336.514 184.818,337.373 186.018 M311.324 186.600 C 311.326 187.920,311.401 188.412,311.490 187.693 C 311.579 186.974,311.577 185.894,311.486 185.293 C 311.395 184.692,311.322 185.280,311.324 186.600 M344.781 185.488 C 345.906 187.180,346.206 187.327,346.835 186.496 C 347.288 185.897,347.281 185.872,346.784 186.317 C 346.301 186.749,346.019 186.617,345.065 185.517 L 343.924 184.200 344.781 185.488 M120.559 185.700 C 118.807 187.721,118.287 188.400,118.490 188.400 C 118.607 188.400,119.367 187.590,120.179 186.600 C 121.681 184.766,121.979 184.063,120.559 185.700 M145.477 186.677 C 145.100 187.693,144.858 188.591,144.938 188.672 C 145.019 188.752,145.400 187.993,145.785 186.985 C 146.170 185.976,146.412 185.079,146.323 184.990 C 146.235 184.901,145.854 185.660,145.477 186.677 M373.100 185.429 C 371.605 186.240,371.696 186.578,373.200 185.800 C 373.860 185.459,374.400 185.094,374.400 184.990 C 374.400 184.732,374.357 184.747,373.100 185.429 M369.646 186.300 C 369.599 187.219,370.893 187.620,371.377 186.837 C 371.500 186.638,371.257 186.565,370.837 186.674 C 370.324 186.809,370.011 186.632,369.883 186.137 C 369.728 185.537,369.684 185.567,369.646 186.300 M177.181 188.972 C 178.285 190.607,179.366 192.055,179.584 192.190 C 179.802 192.325,178.983 190.987,177.764 189.217 C 176.545 187.448,175.464 186.000,175.362 186.000 C 175.259 186.000,176.078 187.338,177.181 188.972 M304.779 187.455 C 304.558 188.036,304.452 188.585,304.543 188.676 C 304.633 188.767,304.899 188.292,305.133 187.620 C 305.653 186.128,305.339 185.982,304.779 187.455 M62.849 187.400 C 62.816 187.840,62.696 188.650,62.583 189.200 L 62.377 190.200 62.806 189.219 C 63.042 188.679,63.161 187.869,63.072 187.419 C 62.913 186.621,62.907 186.621,62.849 187.400 M77.822 188.222 C 77.672 189.025,77.628 189.762,77.726 189.860 C 77.824 189.957,78.027 189.381,78.178 188.578 C 78.328 187.775,78.372 187.038,78.274 186.940 C 78.176 186.843,77.973 187.419,77.822 188.222 M56.081 188.018 C 55.800 188.469,55.172 188.997,54.685 189.193 C 54.124 189.419,54.028 189.559,54.425 189.575 C 55.115 189.603,56.800 188.191,56.800 187.584 C 56.800 187.017,56.650 187.108,56.081 188.018 M318.880 188.480 C 318.534 188.826,318.400 191.547,318.400 198.200 C 318.400 208.868,318.245 208.430,321.980 208.329 L 324.600 208.259 321.800 208.029 L 319.000 207.800 318.887 199.000 C 318.742 187.703,318.512 188.468,322.103 188.297 L 325.000 188.159 322.180 188.079 C 320.419 188.030,319.180 188.180,318.880 188.480 M352.729 188.700 C 351.778 189.818,350.328 192.000,350.535 192.000 C 350.640 192.000,351.372 191.100,352.162 190.000 C 353.585 188.019,353.877 187.350,352.729 188.700 M84.249 189.015 C 84.112 189.373,84.018 190.056,84.041 190.533 C 84.067 191.081,84.203 190.886,84.410 190.003 C 84.760 188.516,84.665 187.933,84.249 189.015 M213.714 190.200 C 213.717 191.300,213.795 191.703,213.887 191.095 C 213.979 190.486,213.977 189.586,213.882 189.095 C 213.787 188.603,213.711 189.100,213.714 190.200 M117.398 189.359 C 117.179 189.666,116.583 190.476,116.073 191.159 C 114.671 193.035,115.302 192.646,116.979 190.600 C 117.790 189.610,118.306 188.800,118.125 188.800 C 117.944 188.800,117.617 189.051,117.398 189.359 M169.200 194.180 C 169.200 197.125,169.079 199.849,168.932 200.233 C 168.749 200.709,168.813 200.839,169.132 200.642 C 169.451 200.445,169.604 198.613,169.613 194.876 C 169.628 188.808,169.406 189.063,171.909 192.244 C 172.409 192.880,172.229 192.460,171.509 191.311 C 169.372 187.902,169.200 188.116,169.200 194.180 M265.849 189.415 C 265.712 189.773,265.623 190.636,265.650 191.333 C 265.692 192.387,265.750 192.298,265.999 190.800 C 266.317 188.886,266.259 188.348,265.849 189.415 M282.682 190.421 C 282.808 191.399,282.975 192.275,283.055 192.367 C 283.381 192.742,283.160 189.755,282.821 189.221 C 282.584 188.846,282.535 189.270,282.682 190.421 M324.973 198.200 C 324.973 203.480,325.030 205.585,325.099 202.877 C 325.168 200.169,325.168 195.849,325.099 193.277 C 325.029 190.705,324.972 192.920,324.973 198.200 M369.612 189.273 C 369.600 189.945,371.048 190.685,371.497 190.237 C 371.627 190.106,371.442 190.000,371.087 190.000 C 370.731 190.000,370.256 189.685,370.032 189.300 C 369.660 188.661,369.623 188.659,369.612 189.273 M375.400 189.223 C 376.280 189.405,377.450 189.544,378.000 189.531 C 378.641 189.516,378.426 189.389,377.400 189.177 C 376.520 188.995,375.350 188.856,374.800 188.869 C 374.159 188.884,374.374 189.011,375.400 189.223 M42.267 189.867 C 42.120 190.013,42.003 190.328,42.006 190.567 C 42.010 190.833,42.131 190.813,42.322 190.513 C 42.530 190.185,44.257 189.985,47.616 189.899 L 52.600 189.773 47.567 189.686 C 44.798 189.639,42.413 189.720,42.267 189.867 M272.029 190.654 C 271.209 191.697,270.905 193.770,271.516 194.148 C 271.690 194.256,271.762 193.737,271.675 192.995 C 271.554 191.952,271.750 191.414,272.541 190.623 C 273.103 190.060,273.405 189.600,273.211 189.600 C 273.017 189.600,272.485 190.074,272.029 190.654 M275.400 190.062 C 278.363 191.683,277.133 196.036,273.873 195.467 C 272.750 195.271,272.704 195.295,273.485 195.677 C 275.251 196.539,277.600 194.688,277.600 192.435 C 277.600 191.431,276.087 189.597,275.271 189.612 C 274.718 189.622,274.740 189.701,275.400 190.062 M290.399 189.900 C 290.399 190.065,291.974 190.152,293.899 190.093 C 300.390 189.894,301.030 189.745,295.700 189.672 C 292.785 189.632,290.400 189.735,290.399 189.900 M341.296 191.459 L 342.781 193.481 342.900 200.641 L 343.020 207.800 343.110 200.672 L 343.200 193.544 341.995 191.792 C 341.332 190.829,340.570 189.905,340.301 189.739 C 340.032 189.572,340.480 190.347,341.296 191.459 M379.320 191.600 C 379.320 192.810,379.395 193.305,379.487 192.700 C 379.578 192.095,379.578 191.105,379.487 190.500 C 379.395 189.895,379.320 190.390,379.320 191.600 M259.324 192.600 C 259.326 193.920,259.401 194.412,259.490 193.693 C 259.579 192.974,259.577 191.894,259.486 191.293 C 259.395 190.692,259.322 191.280,259.324 192.600 M372.715 191.600 C 372.812 192.260,372.960 192.800,373.045 192.800 C 373.130 192.800,373.200 192.260,373.200 191.600 C 373.200 190.940,373.051 190.400,372.869 190.400 C 372.687 190.400,372.618 190.940,372.715 191.600 M374.554 190.977 C 374.432 191.294,374.417 191.879,374.520 192.277 C 374.642 192.750,374.723 192.620,374.754 191.900 C 374.804 190.699,375.766 190.432,377.226 191.214 C 377.663 191.448,378.000 191.468,378.000 191.261 C 378.000 190.391,374.877 190.134,374.554 190.977 M245.200 190.884 C 245.200 191.004,244.928 191.754,244.595 192.551 C 244.262 193.348,244.079 194.000,244.189 194.000 C 244.506 194.000,245.633 191.100,245.405 190.872 C 245.292 190.759,245.200 190.765,245.200 190.884 M289.314 192.600 C 289.317 193.700,289.395 194.103,289.487 193.495 C 289.579 192.886,289.577 191.986,289.482 191.495 C 289.387 191.003,289.311 191.500,289.314 192.600 M308.778 192.663 C 307.686 193.823,307.620 193.968,308.462 193.363 C 309.380 192.703,310.645 191.200,310.282 191.200 C 310.213 191.200,309.537 191.858,308.778 192.663 M149.249 192.652 C 148.986 193.230,148.850 193.784,148.949 193.882 C 149.047 193.980,149.246 193.684,149.392 193.224 C 149.538 192.765,149.825 192.492,150.029 192.618 C 150.233 192.744,150.400 192.567,150.400 192.224 C 150.400 191.256,149.780 191.487,149.249 192.652 M207.659 192.600 C 207.620 193.260,207.496 194.250,207.383 194.800 L 207.177 195.800 207.608 194.814 C 207.844 194.272,207.968 193.282,207.883 192.614 L 207.728 191.400 207.659 192.600 M230.491 199.900 L 230.582 208.200 230.700 200.235 C 230.805 193.081,230.878 192.349,231.415 193.035 C 231.965 193.738,231.975 193.711,231.542 192.700 C 230.592 190.478,230.402 191.776,230.491 199.900 M247.909 199.300 L 244.200 206.600 241.337 206.600 C 239.763 206.600,238.683 206.732,238.937 206.894 C 239.905 207.509,243.850 207.229,244.498 206.500 C 244.840 206.115,246.533 202.956,248.260 199.481 L 251.400 193.161 251.624 196.681 L 251.849 200.200 251.924 196.100 C 251.966 193.845,251.914 192.000,251.809 192.000 C 251.703 192.000,249.948 195.285,247.909 199.300 M265.606 194.033 C 265.609 194.785,265.777 195.661,265.979 195.979 C 266.216 196.354,266.265 195.930,266.118 194.779 C 265.835 192.570,265.598 192.225,265.606 194.033 M115.200 193.385 C 115.200 193.560,115.830 194.400,116.600 195.253 C 117.370 196.105,117.993 196.667,117.983 196.501 C 117.960 196.083,115.200 192.992,115.200 193.385 M213.714 195.000 C 213.717 196.100,213.795 196.503,213.887 195.895 C 213.979 195.286,213.977 194.386,213.882 193.895 C 213.787 193.403,213.711 193.900,213.714 195.000 M282.860 194.067 C 282.827 194.654,282.696 195.464,282.570 195.867 C 282.352 196.560,282.365 196.561,282.795 195.890 C 283.046 195.499,283.177 194.689,283.086 194.090 L 282.920 193.000 282.860 194.067 M374.501 193.600 C 374.590 193.930,375.099 194.233,375.631 194.274 C 376.395 194.332,376.431 194.301,375.800 194.128 C 375.360 194.007,374.851 193.703,374.670 193.454 C 374.451 193.154,374.394 193.204,374.501 193.600 M175.020 196.849 C 176.291 198.692,177.597 200.470,177.924 200.800 C 178.250 201.130,177.389 199.732,176.010 197.694 C 174.632 195.656,173.326 193.878,173.107 193.743 C 172.889 193.608,173.750 195.005,175.020 196.849 M349.195 200.600 L 349.000 207.800 346.200 208.029 L 343.400 208.259 346.000 208.323 C 349.809 208.418,349.636 208.800,349.504 200.571 L 349.390 193.400 349.195 200.600 M373.150 194.673 C 373.603 195.553,375.059 196.275,375.497 195.837 C 375.627 195.706,375.440 195.600,375.082 195.600 C 374.724 195.600,374.042 195.195,373.566 194.700 C 372.704 193.803,372.703 193.803,373.150 194.673 M84.006 195.033 C 84.009 195.455,84.195 196.070,84.418 196.400 C 84.715 196.838,84.752 196.676,84.556 195.800 C 84.227 194.329,83.998 194.010,84.006 195.033 M77.668 195.800 C 77.662 196.240,77.811 196.960,78.000 197.400 C 78.438 198.419,78.438 197.368,78.000 196.000 C 77.743 195.196,77.677 195.157,77.668 195.800 M193.200 195.572 L 196.200 195.800 196.400 199.000 L 196.600 202.200 198.000 202.236 C 199.395 202.271,199.395 202.271,198.100 202.112 L 196.800 201.952 196.800 199.056 C 196.800 195.406,196.575 195.181,193.020 195.272 L 190.200 195.344 193.200 195.572 M48.176 196.119 C 48.066 196.405,48.032 199.150,48.100 202.219 L 48.225 207.800 48.312 201.875 L 48.400 195.949 49.690 196.075 C 50.719 196.175,51.163 196.524,51.884 197.800 C 52.923 199.641,53.124 199.393,52.144 197.480 C 51.184 195.606,48.700 194.754,48.176 196.119 M296.880 196.080 C 296.542 196.418,296.425 198.287,296.484 202.380 L 296.567 208.200 296.784 202.203 L 297.000 196.206 298.200 195.950 C 299.313 195.713,299.326 195.691,298.380 195.647 C 297.819 195.621,297.144 195.816,296.880 196.080 M190.160 201.800 C 190.161 205.100,190.222 206.397,190.298 204.682 C 190.373 202.967,190.372 200.267,190.297 198.682 C 190.221 197.097,190.159 198.500,190.160 201.800 M242.232 197.502 L 241.521 198.994 240.777 197.597 C 240.368 196.829,240.026 196.344,240.017 196.520 C 239.979 197.236,241.261 199.209,241.620 198.988 C 242.103 198.689,243.315 196.382,243.101 196.168 C 243.014 196.081,242.623 196.681,242.232 197.502 M206.603 197.190 C 206.455 197.657,205.692 198.681,204.908 199.466 C 204.124 200.250,203.826 200.707,204.246 200.483 C 205.571 199.773,207.546 197.012,207.069 196.536 C 206.961 196.428,206.752 196.722,206.603 197.190 M368.486 196.738 C 367.923 197.096,368.241 198.400,368.892 198.400 C 369.136 198.400,369.110 198.174,368.827 197.832 C 368.455 197.384,368.507 197.176,369.078 196.844 C 369.475 196.613,369.620 196.422,369.400 196.418 C 369.180 196.415,368.769 196.559,368.486 196.738 M266.402 197.233 C 266.401 197.582,266.985 198.492,267.700 199.257 C 268.415 200.021,268.697 200.276,268.327 199.823 C 267.956 199.370,267.372 198.460,267.029 197.800 C 266.686 197.140,266.404 196.885,266.402 197.233 M108.979 198.900 C 108.106 199.835,106.853 201.240,106.196 202.022 C 105.538 202.804,106.242 202.121,107.761 200.505 L 110.521 197.566 111.735 198.683 L 112.949 199.800 111.974 198.522 C 110.741 196.904,110.856 196.890,108.979 198.900 M119.999 199.199 C 120.919 200.298,121.881 201.326,122.136 201.483 C 122.391 201.639,121.723 200.740,120.651 199.484 C 119.580 198.228,118.618 197.200,118.514 197.200 C 118.410 197.200,119.079 198.099,119.999 199.199 M212.391 199.800 C 211.836 200.974,211.542 201.836,211.737 201.716 C 212.145 201.463,213.734 198.000,213.533 197.799 C 213.459 197.726,212.945 198.626,212.391 199.800 M307.234 197.800 C 307.234 198.020,307.578 198.830,308.000 199.600 C 308.422 200.370,308.766 200.820,308.766 200.600 C 308.766 200.380,308.422 199.570,308.000 198.800 C 307.578 198.030,307.234 197.580,307.234 197.800 M280.626 199.500 C 279.762 200.605,279.693 200.790,280.363 200.204 C 281.165 199.504,282.223 198.000,281.914 198.000 C 281.851 198.000,281.272 198.675,280.626 199.500 M370.165 198.896 C 370.689 199.299,370.839 199.723,370.641 200.242 C 370.406 200.859,370.449 200.905,370.867 200.489 C 371.453 199.908,370.945 198.767,369.971 198.478 C 369.657 198.385,369.744 198.573,370.165 198.896 M78.680 199.500 C 79.086 200.617,81.023 203.328,82.037 204.200 C 82.549 204.640,82.312 204.216,81.510 203.258 C 80.707 202.300,79.761 200.905,79.407 200.158 C 78.733 198.738,78.240 198.292,78.680 199.500 M235.800 201.600 C 236.576 203.140,237.300 204.400,237.410 204.400 C 237.520 204.400,236.976 203.140,236.200 201.600 C 235.424 200.060,234.700 198.800,234.590 198.800 C 234.480 198.800,235.024 200.060,235.800 201.600 M260.800 199.862 C 260.800 200.498,263.155 203.612,264.513 204.772 C 266.641 206.588,267.070 206.583,265.031 204.765 C 263.948 203.800,262.553 202.208,261.931 201.227 C 261.309 200.246,260.800 199.632,260.800 199.862 M113.996 201.594 C 114.690 202.471,115.467 203.318,115.723 203.476 C 115.978 203.634,115.493 202.916,114.645 201.881 C 113.797 200.847,113.020 200.000,112.918 200.000 C 112.816 200.000,113.301 200.718,113.996 201.594 M371.694 201.275 C 371.161 202.689,371.887 204.025,373.162 203.975 C 373.597 203.957,373.527 203.839,372.941 203.603 C 371.725 203.112,371.521 202.610,372.059 201.430 C 372.621 200.196,373.705 200.105,374.800 201.200 C 375.337 201.737,375.600 201.824,375.600 201.464 C 375.600 200.876,373.965 200.000,372.869 200.000 C 372.457 200.000,371.980 200.517,371.694 201.275 M302.207 201.879 C 302.807 203.314,303.200 203.962,303.200 203.516 C 303.200 203.084,301.985 200.400,301.789 200.400 C 301.679 200.400,301.867 201.066,302.207 201.879 M269.600 200.976 C 269.600 201.432,272.036 202.397,273.080 202.354 C 274.094 202.312,274.068 202.282,272.800 202.028 C 272.030 201.874,270.995 201.528,270.500 201.260 C 270.005 200.992,269.600 200.864,269.600 200.976 M278.200 201.290 C 277.760 201.546,276.770 201.880,276.000 202.032 C 274.735 202.281,274.708 202.312,275.720 202.354 C 276.748 202.396,279.200 201.435,279.200 200.990 C 279.200 200.731,279.119 200.755,278.200 201.290 M53.634 201.400 C 53.634 201.620,53.978 202.430,54.400 203.200 C 54.822 203.970,55.166 204.420,55.166 204.200 C 55.166 203.980,54.822 203.170,54.400 202.400 C 53.978 201.630,53.634 201.180,53.634 201.400 M369.874 202.040 C 369.634 202.956,370.311 204.800,370.887 204.800 C 371.084 204.800,370.970 204.407,370.634 203.926 C 370.280 203.421,370.120 202.662,370.254 202.126 C 370.382 201.617,370.398 201.200,370.290 201.200 C 370.182 201.200,369.994 201.578,369.874 202.040 M180.251 204.300 C 183.252 208.585,182.991 208.400,186.038 208.400 C 187.531 208.400,188.837 208.265,188.940 208.100 C 189.042 207.935,187.817 207.858,186.217 207.930 L 183.308 208.059 181.045 204.830 C 179.800 203.053,178.687 201.600,178.571 201.600 C 178.455 201.600,179.211 202.815,180.251 204.300 M94.100 202.296 C 95.365 202.375,97.435 202.375,98.700 202.296 C 99.965 202.216,98.930 202.151,96.400 202.151 C 93.870 202.151,92.835 202.216,94.100 202.296 M122.400 202.125 C 122.400 202.194,122.985 202.779,123.700 203.425 L 125.000 204.600 123.825 203.300 C 122.730 202.088,122.400 201.816,122.400 202.125 M76.773 202.968 C 77.044 203.294,77.192 204.439,77.122 205.668 L 77.000 207.800 70.800 208.016 L 64.600 208.232 70.467 208.316 C 73.694 208.362,76.619 208.291,76.967 208.157 C 78.025 207.751,77.784 202.400,76.708 202.400 C 76.464 202.400,76.490 202.626,76.773 202.968 M101.334 205.200 C 101.334 206.850,101.405 207.525,101.491 206.700 C 101.578 205.875,101.578 204.525,101.491 203.700 C 101.405 202.875,101.334 203.550,101.334 205.200 M209.775 203.700 L 208.600 205.000 209.900 203.825 C 210.615 203.179,211.200 202.594,211.200 202.525 C 211.200 202.216,210.870 202.488,209.775 203.700 M284.581 204.100 L 283.000 205.800 284.700 204.219 C 286.281 202.748,286.584 202.400,286.281 202.400 C 286.216 202.400,285.451 203.165,284.581 204.100 M309.628 203.000 C 309.628 203.220,309.886 203.850,310.200 204.400 C 310.514 204.950,310.772 205.220,310.772 205.000 C 310.772 204.780,310.514 204.150,310.200 203.600 C 309.886 203.050,309.628 202.780,309.628 203.000 M61.600 203.684 C 61.600 204.116,62.815 206.800,63.011 206.800 C 63.121 206.800,62.933 206.134,62.593 205.321 C 61.993 203.886,61.600 203.238,61.600 203.684 M103.314 205.080 C 102.827 205.586,102.574 206.000,102.752 206.000 C 103.142 206.000,104.598 204.445,104.364 204.277 C 104.274 204.213,103.801 204.574,103.314 205.080 M117.698 206.000 L 119.500 208.200 123.050 208.227 L 126.600 208.254 123.200 208.123 L 119.800 207.991 117.848 205.896 L 115.896 203.800 117.698 206.000 M125.645 205.781 C 126.000 206.231,126.490 206.960,126.733 207.400 C 126.977 207.840,127.181 207.978,127.188 207.706 C 127.195 207.435,126.705 206.706,126.100 206.087 C 125.495 205.468,125.290 205.330,125.645 205.781 M207.293 205.380 C 205.998 206.095,205.791 206.380,206.747 206.130 C 207.202 206.011,207.782 205.663,208.036 205.357 C 208.575 204.707,208.507 204.709,207.293 205.380 M137.849 206.215 C 137.712 206.573,137.615 207.166,137.634 207.533 C 137.653 207.900,137.827 207.669,138.021 207.020 C 138.398 205.758,138.265 205.133,137.849 206.215 M311.290 207.000 C 311.422 207.958,306.412 208.440,305.364 207.570 C 305.023 207.287,304.800 207.263,304.800 207.508 C 304.800 208.147,305.867 208.400,308.533 208.394 C 311.507 208.386,312.292 208.021,311.637 206.948 C 311.200 206.232,311.185 206.234,311.290 207.000 M224.527 207.400 C 224.599 208.110,224.913 208.203,227.306 208.230 L 230.003 208.259 227.428 208.112 C 225.428 207.998,224.806 207.812,224.649 207.282 C 224.499 206.780,224.467 206.811,224.527 207.400 M89.000 207.600 C 89.440 207.789,90.160 207.938,90.600 207.932 C 91.243 207.923,91.204 207.857,90.400 207.600 C 89.032 207.162,87.981 207.162,89.000 207.600 M201.200 207.600 C 200.408 207.854,200.367 207.920,201.000 207.920 C 201.440 207.920,202.250 207.776,202.800 207.600 C 203.592 207.346,203.633 207.280,203.000 207.280 C 202.560 207.280,201.750 207.424,201.200 207.600 M269.400 207.600 C 269.840 207.789,270.470 207.944,270.800 207.944 C 271.178 207.944,271.104 207.817,270.600 207.600 C 270.160 207.411,269.530 207.256,269.200 207.256 C 268.822 207.256,268.896 207.383,269.400 207.600 M159.000 208.000 L 156.200 208.259 158.876 208.329 C 160.348 208.368,161.664 208.220,161.800 208.000 C 161.936 207.780,161.992 207.632,161.924 207.671 C 161.856 207.709,160.540 207.858,159.000 208.000 M43.900 208.289 C 44.615 208.378,45.785 208.378,46.500 208.289 C 47.215 208.201,46.630 208.128,45.200 208.128 C 43.770 208.128,43.185 208.201,43.900 208.289 M58.500 208.291 C 59.325 208.378,60.675 208.378,61.500 208.291 C 62.325 208.205,61.650 208.134,60.000 208.134 C 58.350 208.134,57.675 208.205,58.500 208.291 M94.515 208.296 C 95.788 208.376,97.768 208.375,98.915 208.294 C 100.062 208.214,99.020 208.149,96.600 208.150 C 94.180 208.151,93.242 208.216,94.515 208.296 M139.491 208.289 C 140.201 208.377,141.461 208.379,142.291 208.292 C 143.121 208.205,142.540 208.133,141.000 208.131 C 139.460 208.129,138.781 208.200,139.491 208.289 M192.915 208.296 C 194.188 208.376,196.168 208.375,197.315 208.294 C 198.462 208.214,197.420 208.149,195.000 208.150 C 192.580 208.151,191.642 208.216,192.915 208.296 M273.500 208.282 C 273.995 208.378,274.805 208.378,275.300 208.282 C 275.795 208.187,275.390 208.109,274.400 208.109 C 273.410 208.109,273.005 208.187,273.500 208.282 M292.300 208.289 C 293.015 208.378,294.185 208.378,294.900 208.289 C 295.615 208.201,295.030 208.128,293.600 208.128 C 292.170 208.128,291.585 208.201,292.300 208.289 " stroke="none" fill="#9e9e9e" fill-rule="evenodd"></path><path id="path4" d="M342.900 160.687 C 343.505 160.778,344.495 160.778,345.100 160.687 C 345.705 160.595,345.210 160.520,344.000 160.520 C 342.790 160.520,342.295 160.595,342.900 160.687 M347.606 161.076 C 347.595 161.941,348.465 162.107,349.138 161.369 C 349.761 160.687,349.757 160.676,349.070 161.196 C 348.446 161.668,348.286 161.664,347.976 161.174 C 347.748 160.814,347.610 160.777,347.606 161.076 M42.120 180.000 C 42.120 181.210,42.195 181.705,42.287 181.100 C 42.378 180.495,42.378 179.505,42.287 178.900 C 42.195 178.295,42.120 178.790,42.120 180.000 M67.778 190.000 C 67.778 196.710,67.832 199.455,67.899 196.100 C 67.966 192.745,67.966 187.255,67.899 183.900 C 67.832 180.545,67.778 183.290,67.778 190.000 M108.161 184.000 C 108.161 187.410,108.222 188.805,108.297 187.100 C 108.372 185.395,108.372 182.605,108.297 180.900 C 108.222 179.195,108.161 180.590,108.161 184.000 M188.981 192.800 C 188.981 201.050,189.034 204.425,189.099 200.300 C 189.164 196.175,189.164 189.425,189.099 185.300 C 189.034 181.175,188.981 184.550,188.981 192.800 M224.581 192.400 C 224.581 200.430,224.634 203.715,224.699 199.700 C 224.765 195.685,224.765 189.115,224.699 185.100 C 224.634 181.085,224.581 184.370,224.581 192.400 M312.514 179.800 C 312.517 180.900,312.595 181.303,312.687 180.695 C 312.779 180.086,312.777 179.186,312.682 178.695 C 312.587 178.203,312.511 178.700,312.514 179.800 M196.134 186.400 C 196.134 188.050,196.205 188.725,196.291 187.900 C 196.378 187.075,196.378 185.725,196.291 184.900 C 196.205 184.075,196.134 184.750,196.134 186.400 M168.958 194.600 C 168.958 197.680,169.021 198.887,169.097 197.282 C 169.173 195.678,169.173 193.158,169.096 191.682 C 169.019 190.207,168.957 191.520,168.958 194.600 M318.972 198.400 C 318.972 203.570,319.029 205.685,319.099 203.100 C 319.168 200.515,319.168 196.285,319.099 193.700 C 319.029 191.115,318.972 193.230,318.972 198.400 M42.169 198.800 C 42.169 203.310,42.227 205.155,42.298 202.900 C 42.370 200.645,42.370 196.955,42.298 194.700 C 42.227 192.445,42.169 194.290,42.169 198.800 M196.131 198.600 C 196.133 200.140,196.205 200.721,196.292 199.891 C 196.379 199.061,196.377 197.801,196.289 197.091 C 196.200 196.381,196.129 197.060,196.131 198.600 M74.500 202.676 C 74.885 202.776,75.515 202.776,75.900 202.676 C 76.285 202.575,75.970 202.493,75.200 202.493 C 74.430 202.493,74.115 202.575,74.500 202.676 " stroke="none" fill="#848484" fill-rule="evenodd"></path></g></svg>